<svg width="512" height="512" viewBox="0 0 512 512" fill="none" xmlns="http://www.w3.org/2000/svg">
<path d="M328 397.68C327.486 395.979 326.421 394.498 324.973 393.47C323.524 392.441 321.775 391.924 320 392H192C190.225 391.924 188.476 392.441 187.027 393.47C185.579 394.498 184.514 395.979 184 397.68L160 477.68H352L328 397.68Z" fill="#93A8A9"/>
<path d="M39.44 408C32.8096 407.548 26.6264 404.494 22.2363 399.505C17.8463 394.516 15.6048 387.994 16 381.36V50.64C15.6048 44.006 17.8463 37.4844 22.2363 32.495C26.6264 27.5056 32.8096 24.4524 39.44 24H472.56C479.19 24.4524 485.374 27.5056 489.764 32.495C494.154 37.4844 496.395 44.006 496 50.64V380.24C495.927 383.966 495.12 387.641 493.624 391.055C492.128 394.468 489.973 397.553 487.283 400.132C484.592 402.711 481.419 404.733 477.946 406.083C474.472 407.434 470.766 408.085 467.04 408H39.44Z" fill="#D5E1DD"/>
<path d="M496 312V376C496.392 384.081 493.563 391.988 488.135 397.986C482.706 403.985 475.12 407.586 467.04 408H39.52C26.48 408 16 394.24 16 377.28V312H496Z" fill="#1A2F1D"/>
<path d="M416 472H96V488H416V472Z" fill="#4C5870"/>
<path d="M256 384C269.255 384 280 373.255 280 360C280 346.745 269.255 336 256 336C242.745 336 232 346.745 232 360C232 373.255 242.745 384 256 384Z" fill="#7ACFD6"/>
<path d="M184 108H177.92C177.128 108.007 176.352 107.774 175.695 107.331C175.038 106.888 174.531 106.257 174.24 105.52C173.925 104.797 173.841 103.994 173.998 103.221C174.156 102.448 174.547 101.743 175.12 101.2L179.36 96.88C180.85 95.3811 181.686 93.3535 181.686 91.24C181.686 89.1265 180.85 87.0989 179.36 85.6L162.4 68.64C160.901 67.15 158.873 66.3137 156.76 66.3137C154.647 66.3137 152.619 67.15 151.12 68.64L146.8 72.88C146.257 73.4526 145.552 73.8443 144.779 74.0017C144.006 74.1592 143.203 74.0748 142.48 73.76C141.743 73.469 141.112 72.9616 140.669 72.3047C140.226 71.6478 139.993 70.8722 140 70.08V64C140 61.8783 139.157 59.8434 137.657 58.3431C136.157 56.8429 134.122 56 132 56H108C105.878 56 103.843 56.8429 102.343 58.3431C100.843 59.8434 100 61.8783 100 64V70.08C100.007 70.8722 99.7736 71.6478 99.3309 72.3047C98.8882 72.9616 98.2568 73.469 97.52 73.76C96.7967 74.0748 95.9941 74.1592 95.2211 74.0017C94.4482 73.8443 93.7425 73.4526 93.2 72.88L88.88 68.64C87.3811 67.15 85.3535 66.3137 83.24 66.3137C81.1265 66.3137 79.0989 67.15 77.6 68.64L60.64 85.6C59.15 87.0989 58.3137 89.1265 58.3137 91.24C58.3137 93.3535 59.15 95.3811 60.64 96.88L64.88 101.2C65.4526 101.743 65.8443 102.448 66.0017 103.221C66.1592 103.994 66.0748 104.797 65.76 105.52C65.469 106.257 64.9616 106.888 64.3047 107.331C63.6478 107.774 62.8722 108.007 62.08 108H56C53.8783 108 51.8434 108.843 50.3431 110.343C48.8429 111.843 48 113.878 48 116V140C48 142.122 48.8429 144.157 50.3431 145.657C51.8434 147.157 53.8783 148 56 148H62.08C62.8722 147.993 63.6478 148.226 64.3047 148.669C64.9616 149.112 65.469 149.743 65.76 150.48C66.0748 151.203 66.1592 152.006 66.0017 152.779C65.8443 153.552 65.4526 154.257 64.88 154.8L60.64 159.12C59.8841 159.861 59.2827 160.744 58.8708 161.719C58.4588 162.694 58.2444 163.742 58.24 164.8C58.2701 166.91 59.1327 168.923 60.64 170.4L77.6 187.36C79.0989 188.85 81.1265 189.686 83.24 189.686C85.3535 189.686 87.3811 188.85 88.88 187.36L93.2 183.12C93.7425 182.547 94.4482 182.156 95.2211 181.998C95.9941 181.841 96.7967 181.925 97.52 182.24C98.2568 182.531 98.8882 183.038 99.3309 183.695C99.7736 184.352 100.007 185.128 100 185.92V192C100 194.122 100.843 196.157 102.343 197.657C103.843 199.157 105.878 200 108 200H132C134.122 200 136.157 199.157 137.657 197.657C139.157 196.157 140 194.122 140 192V185.92C139.993 185.128 140.226 184.352 140.669 183.695C141.112 183.038 141.743 182.531 142.48 182.24C143.199 181.901 144.008 181.803 144.786 181.961C145.565 182.12 146.271 182.527 146.8 183.12L151.12 187.36C152.619 188.85 154.647 189.686 156.76 189.686C158.873 189.686 160.901 188.85 162.4 187.36L179.36 170.4C180.867 168.923 181.73 166.91 181.76 164.8C181.756 163.742 181.541 162.694 181.129 161.719C180.717 160.744 180.116 159.861 179.36 159.12L175.12 154.8C174.547 154.257 174.156 153.552 173.998 152.779C173.841 152.006 173.925 151.203 174.24 150.48C174.531 149.743 175.038 149.112 175.695 148.669C176.352 148.226 177.128 147.993 177.92 148H184C186.122 148 188.157 147.157 189.657 145.657C191.157 144.157 192 142.122 192 140V116C192 113.878 191.157 111.843 189.657 110.343C188.157 108.843 186.122 108 184 108Z" fill="#1A2F1D"/>
<path d="M120 160C137.673 160 152 145.673 152 128C152 110.327 137.673 96 120 96C102.327 96 88 110.327 88 128C88 145.673 102.327 160 120 160Z" fill="#7CA2A1"/>
<path d="M456 200H328C323.582 200 320 203.582 320 208V288C320 292.418 323.582 296 328 296H456C460.418 296 464 292.418 464 288V208C464 203.582 460.418 200 456 200Z" fill="#ED8A3F"/>
<path d="M432 104H240V120H432V104Z" fill="#005995"/>
<path d="M448 136H208V152H448V136Z" fill="#005995"/>
<path d="M288 232H128V248H288V232Z" fill="#003A6F"/>
<path d="M304 264H80V280H304V264Z" fill="#003A6F"/>
</svg>
