<svg width="512" height="512" viewBox="0 0 512 512" fill="none" xmlns="http://www.w3.org/2000/svg">
<g clip-path="url(#clip0_248_422)">
<path d="M170.665 512C217.769 512 255.999 473.77 255.999 426.666V341.333H170.665C123.561 341.333 85.332 379.562 85.332 426.666C85.332 473.77 123.561 512 170.665 512Z" fill="#0ACF83"/>
<path d="M85.332 256C85.332 208.896 123.561 170.667 170.665 170.667H255.999V341.334H170.665C123.561 341.334 85.332 303.104 85.332 256Z" fill="#A259FF"/>
<path d="M85.332 85.3333C85.332 38.2293 123.561 0 170.665 0H255.999V170.667H170.665C123.561 170.667 85.332 132.437 85.332 85.3333Z" fill="#F24E1E"/>
<path d="M179.604 341.333H170.665C123.561 341.333 85.332 379.562 85.332 426.666C85.332 473.77 123.561 512 170.665 512C173.695 512 176.66 511.85 179.604 511.53V341.333Z" fill="#09B472"/>
<path d="M179.604 170.667H170.665C123.561 170.667 85.332 208.896 85.332 256C85.332 303.104 123.561 341.334 170.665 341.334H179.604V170.667Z" fill="#8D4DDE"/>
<path d="M179.604 0H170.665C123.561 0 85.332 38.2293 85.332 85.3333C85.332 132.437 123.561 170.667 170.665 170.667H179.604V0Z" fill="#D3441A"/>
<path d="M256 0H341.333C388.437 0 426.667 38.2293 426.667 85.3333C426.667 132.437 388.437 170.667 341.333 170.667H256V0Z" fill="#FF7262"/>
<path d="M426.667 256C426.667 303.104 388.437 341.334 341.333 341.334C294.229 341.334 256 303.104 256 256C256 208.896 294.229 170.667 341.333 170.667C388.437 170.667 426.667 208.896 426.667 256Z" fill="#1ABCFE"/>
<path d="M341.333 0H256V170.667H341.333V0Z" fill="#DE6355"/>
<path d="M341.333 170.667C294.229 170.667 256 208.896 256 256C256 303.104 294.229 341.334 341.333 341.334V170.667Z" fill="#17A4DD"/>
</g>
<defs>
<clipPath id="clip0_248_422">
<rect width="512" height="512" fill="white"/>
</clipPath>
</defs>
</svg>
