<svg width="2199" height="909" viewBox="0 0 2199 909" fill="none" xmlns="http://www.w3.org/2000/svg">
<line x1="33.5" y1="2.10454e-08" x2="33.5" y2="909" stroke="#2A2A2A"/>
<line x1="97.5" y1="2.10454e-08" x2="97.5" y2="909" stroke="#2A2A2A"/>
<line x1="161.5" y1="2.10454e-08" x2="161.5" y2="909" stroke="#2A2A2A"/>
<line x1="225.5" y1="2.10454e-08" x2="225.5" y2="909" stroke="#2A2A2A"/>
<line x1="289.5" y1="2.10454e-08" x2="289.5" y2="909" stroke="#2A2A2A"/>
<line x1="353.5" y1="2.10454e-08" x2="353.5" y2="909" stroke="#2A2A2A"/>
<line x1="417.5" y1="2.10454e-08" x2="417.5" y2="909" stroke="#2A2A2A"/>
<line x1="481.5" y1="2.10454e-08" x2="481.5" y2="909" stroke="#2A2A2A"/>
<line x1="545.5" y1="2.10454e-08" x2="545.5" y2="909" stroke="#2A2A2A"/>
<line x1="609.5" y1="2.10454e-08" x2="609.5" y2="909" stroke="#2A2A2A"/>
<line x1="673.5" y1="2.10454e-08" x2="673.5" y2="909" stroke="#2A2A2A"/>
<line x1="737.5" y1="2.10454e-08" x2="737.5" y2="909" stroke="#2A2A2A"/>
<line x1="801.5" y1="2.10454e-08" x2="801.5" y2="909" stroke="#2A2A2A"/>
<line x1="865.5" y1="2.10454e-08" x2="865.5" y2="909" stroke="#2A2A2A"/>
<line x1="929.5" y1="2.10454e-08" x2="929.5" y2="909" stroke="#2A2A2A"/>
<line x1="993.5" y1="2.10454e-08" x2="993.5" y2="909" stroke="#2A2A2A"/>
<line x1="1057.5" y1="2.10454e-08" x2="1057.5" y2="909" stroke="#2A2A2A"/>
<line x1="1121.5" y1="2.10454e-08" x2="1121.5" y2="909" stroke="#2A2A2A"/>
<line x1="1185.5" y1="2.10454e-08" x2="1185.5" y2="909" stroke="#2A2A2A"/>
<line x1="1249.5" y1="2.10454e-08" x2="1249.5" y2="909" stroke="#2A2A2A"/>
<line x1="1313.5" y1="2.10454e-08" x2="1313.5" y2="909" stroke="#2A2A2A"/>
<line x1="1377.5" y1="2.10454e-08" x2="1377.5" y2="909" stroke="#2A2A2A"/>
<line x1="1441.5" y1="2.10454e-08" x2="1441.5" y2="909" stroke="#2A2A2A"/>
<line x1="1505.5" y1="2.10454e-08" x2="1505.5" y2="909" stroke="#2A2A2A"/>
<line x1="1569.5" y1="2.10454e-08" x2="1569.5" y2="909" stroke="#2A2A2A"/>
<line x1="1633.5" y1="2.10454e-08" x2="1633.5" y2="909" stroke="#2A2A2A"/>
<line x1="1697.5" y1="2.10454e-08" x2="1697.5" y2="909" stroke="#2A2A2A"/>
<line x1="1761.5" y1="2.10454e-08" x2="1761.5" y2="909" stroke="#2A2A2A"/>
<line x1="1825.5" y1="2.10454e-08" x2="1825.5" y2="909" stroke="#2A2A2A"/>
<line x1="1889.5" y1="2.10454e-08" x2="1889.5" y2="909" stroke="#2A2A2A"/>
<line x1="1953.5" y1="2.10454e-08" x2="1953.5" y2="909" stroke="#2A2A2A"/>
<line x1="2017.5" y1="2.10454e-08" x2="2017.5" y2="909" stroke="#2A2A2A"/>
<line x1="2081.5" y1="2.10454e-08" x2="2081.5" y2="909" stroke="#2A2A2A"/>
<line x1="2145.5" y1="2.10454e-08" x2="2145.5" y2="909" stroke="#2A2A2A"/>
<line y1="850.5" x2="2199" y2="850.5" stroke="#2A2A2A"/>
<line y1="784.5" x2="2199" y2="784.5" stroke="#2A2A2A"/>
<line y1="718.5" x2="2199" y2="718.5" stroke="#2A2A2A"/>
<line y1="652.5" x2="2199" y2="652.5" stroke="#2A2A2A"/>
<line y1="586.5" x2="2199" y2="586.5" stroke="#2A2A2A"/>
<line y1="520.5" x2="2199" y2="520.5" stroke="#2A2A2A"/>
<line y1="454.5" x2="2199" y2="454.5" stroke="#2A2A2A"/>
<line y1="388.5" x2="2199" y2="388.5" stroke="#2A2A2A"/>
<line y1="322.5" x2="2199" y2="322.5" stroke="#2A2A2A"/>
<line y1="256.5" x2="2199" y2="256.5" stroke="#2A2A2A"/>
<line y1="190.5" x2="2199" y2="190.5" stroke="#2A2A2A"/>
<line y1="124.5" x2="2199" y2="124.5" stroke="#2A2A2A"/>
<line y1="58.5" x2="2199" y2="58.5" stroke="#2A2A2A"/>
</svg>
