<svg width="241" height="128" viewBox="0 0 241 128" fill="none" xmlns="http://www.w3.org/2000/svg">
<path d="M21.6 31.496L21.696 40.664C21.696 47.096 21.536 50.968 21.216 52.28C20.576 54.872 19.328 56.84 17.472 58.184C15.616 59.496 13.424 60.152 10.896 60.152C9.808 60.152 8.816 60.056 7.92 59.864C7.056 59.672 6.464 59.48 6.144 59.288L5.664 58.952C4.544 59.816 3.216 60.248 1.68 60.248C1.36 60.248 1.184 60.232 1.152 60.2L0.96 57.752C0.96 53.496 1.136 50.424 1.488 48.536L1.68 47.48C1.872 47.224 2.464 46.952 3.456 46.664C4.448 46.344 5.328 46.184 6.096 46.184C6.096 49.704 6.512 52.072 7.344 53.288C8.176 54.472 9.44 55.064 11.136 55.064C14.176 55.064 15.696 52.232 15.696 46.568L15.744 39.032C15.744 35.128 15.568 33 15.216 32.648C14.576 32.008 13.248 31.688 11.232 31.688H11.04C10.912 31.624 10.848 31.304 10.848 30.728C10.848 30.152 10.928 29.56 11.088 28.952C11.248 28.344 11.376 27.992 11.472 27.896C11.6 27.768 12.112 27.608 13.008 27.416C15.696 26.904 18.752 26.648 22.176 26.648C22.624 26.648 22.848 26.68 22.848 26.744C22.848 27.512 22.64 28.488 22.224 29.672C21.808 30.856 21.6 31.464 21.6 31.496ZM37.7693 43.736C37.7693 42.808 37.2733 42.344 36.2812 42.344C34.9693 42.344 33.8173 43.016 32.8253 44.36C31.8333 45.704 31.3372 47.32 31.3372 49.208C31.3372 49.656 31.4013 49.88 31.5293 49.88C32.6813 49.848 34.0093 49.192 35.5133 47.912C37.0173 46.6 37.7693 45.208 37.7693 43.736ZM41.9453 59C40.8573 59.736 38.7293 60.104 35.5613 60.104C32.3933 60.104 29.9613 59.16 28.2653 57.272C26.5693 55.384 25.7213 52.872 25.7213 49.736C25.7213 46.568 26.7293 43.832 28.7453 41.528C30.7933 39.192 33.6573 38.024 37.3373 38.024C38.8413 38.024 40.2173 38.424 41.4653 39.224C42.7453 40.024 43.3853 41.432 43.3853 43.448C43.3853 45.432 42.5053 47.4 40.7453 49.352C39.0173 51.304 36.6493 52.792 33.6413 53.816C33.6413 54.2 34.0253 54.52 34.7933 54.776C35.5933 55 36.3773 55.112 37.1453 55.112C39.5773 55.112 41.4973 54.68 42.9053 53.816C42.9373 53.784 42.9853 53.768 43.0493 53.768C43.1133 53.768 43.1453 54.072 43.1453 54.68C43.1453 56.536 42.7453 57.976 41.9453 59ZM58.0661 43.736C58.0661 42.808 57.5701 42.344 56.5781 42.344C55.2661 42.344 54.1141 43.016 53.1221 44.36C52.1301 45.704 51.6341 47.32 51.6341 49.208C51.6341 49.656 51.6981 49.88 51.8261 49.88C52.9781 49.848 54.3061 49.192 55.8101 47.912C57.3141 46.6 58.0661 45.208 58.0661 43.736ZM62.2421 59C61.1541 59.736 59.0261 60.104 55.8581 60.104C52.6901 60.104 50.2581 59.16 48.5621 57.272C46.8661 55.384 46.0181 52.872 46.0181 49.736C46.0181 46.568 47.0261 43.832 49.0421 41.528C51.0901 39.192 53.9541 38.024 57.6341 38.024C59.1381 38.024 60.5141 38.424 61.7621 39.224C63.0421 40.024 63.6821 41.432 63.6821 43.448C63.6821 45.432 62.8021 47.4 61.0421 49.352C59.3141 51.304 56.9461 52.792 53.9381 53.816C53.9381 54.2 54.3221 54.52 55.0901 54.776C55.8901 55 56.6741 55.112 57.4421 55.112C59.8741 55.112 61.7941 54.68 63.2021 53.816C63.2341 53.784 63.2821 53.768 63.3461 53.768C63.4101 53.768 63.4421 54.072 63.4421 54.68C63.4421 56.536 63.0421 57.976 62.2421 59ZM80.379 40.376C82.523 40.376 83.627 40.584 83.691 41C84.747 46.984 85.595 50.632 86.235 51.944H86.427C87.131 50.44 87.915 47.816 88.779 44.072C89.643 40.328 90.139 37.672 90.267 36.104C92.187 36.104 93.755 36.44 94.971 37.112C95.355 37.304 95.547 37.432 95.547 37.496C95.547 38.904 95.051 41.384 94.059 44.936C93.099 48.488 92.123 51.72 91.131 54.632C90.171 57.512 89.627 59.016 89.499 59.144C89.371 59.272 88.811 59.4 87.819 59.528C86.827 59.688 85.915 59.768 85.083 59.768C84.251 59.768 83.707 59.704 83.451 59.576C83.163 59.288 82.635 57.736 81.867 54.92C81.099 52.104 80.571 49.72 80.283 47.768H80.139C79.659 49.72 79.003 52.024 78.171 54.68C77.371 57.336 76.875 58.776 76.683 59C76.491 59.192 75.851 59.384 74.763 59.576C73.675 59.8 72.811 59.912 72.171 59.912C71.531 59.912 71.163 59.864 71.067 59.768C70.811 59.544 69.851 56.376 68.187 50.264C66.523 44.152 65.691 40.328 65.691 38.792C65.691 38.728 65.851 38.6 66.171 38.408C66.523 38.184 67.115 37.976 67.947 37.784C68.811 37.56 69.771 37.448 70.827 37.448C72.011 44.424 73.099 49.016 74.091 51.224C74.155 51.384 74.235 51.384 74.331 51.224C74.875 50.168 75.435 48.536 76.011 46.328C76.587 44.12 76.939 42.344 77.067 41C77.099 40.84 77.483 40.696 78.219 40.568C78.955 40.44 79.675 40.376 80.379 40.376ZM115.911 48.296C115.911 52.296 115.959 54.632 116.055 55.304C116.311 57.064 116.855 58.328 117.687 59.096C117.687 59.448 117.047 59.976 115.767 60.68C114.519 61.384 113.383 61.736 112.359 61.736C112.071 61.736 111.767 61.304 111.447 60.44C111.127 59.608 110.935 58.984 110.871 58.568C110.839 58.152 110.807 57.944 110.775 57.944L110.631 58.04C108.935 59.384 106.951 60.056 104.679 60.056C102.407 60.056 100.647 59.512 99.399 58.424C98.183 57.304 97.575 55.848 97.575 54.056C97.575 52.264 97.959 50.76 98.727 49.544C99.527 48.296 100.455 47.352 101.511 46.712C102.567 46.072 103.735 45.56 105.015 45.176C106.967 44.536 108.503 44.216 109.623 44.216L109.719 44.168C109.719 42.6 107.735 41.816 103.767 41.816C102.199 41.816 101.031 41.88 100.263 42.008H100.215C100.215 41.368 100.407 40.568 100.791 39.608C101.207 38.648 101.543 38.024 101.799 37.736C102.087 37.448 103.239 37.304 105.255 37.304C108.903 37.304 111.591 38.008 113.319 39.416C115.047 40.792 115.911 42.936 115.911 45.848V48.296ZM110.583 51.368V49.544C110.583 48.84 110.567 48.488 110.535 48.488C108.391 48.488 106.535 49.048 104.967 50.168C103.975 50.872 103.479 51.752 103.479 52.808C103.479 53.48 103.719 54.04 104.199 54.488C104.679 54.936 105.399 55.16 106.359 55.16C107.351 55.16 108.295 54.872 109.191 54.296C110.119 53.72 110.583 52.744 110.583 51.368ZM126.614 48.2L126.662 49.976V53.624C126.662 57.048 126.598 58.824 126.47 58.952C126.054 59.368 125.334 59.688 124.31 59.912C123.286 60.136 122.438 60.248 121.766 60.248C121.126 60.248 120.806 60.2 120.806 60.104C121.03 58.664 121.142 56.296 121.142 53L120.998 42.2C120.998 40.216 121.078 39.144 121.238 38.984C121.59 38.632 122.198 38.328 123.062 38.072C123.926 37.784 124.726 37.64 125.462 37.64C126.23 37.64 126.614 37.72 126.614 37.88C126.518 38.648 126.47 39.416 126.47 40.184C126.47 40.952 126.518 41.336 126.614 41.336L126.758 41.24C126.918 41.016 127.158 40.744 127.478 40.424C127.798 40.072 128.47 39.624 129.494 39.08C130.55 38.504 131.542 38.216 132.47 38.216C133.43 38.216 134.23 38.392 134.87 38.744C135.542 39.064 136.086 39.464 136.502 39.944C136.918 40.424 137.27 41.112 137.558 42.008C137.878 42.904 138.118 43.736 138.278 44.504C138.438 45.272 138.566 46.296 138.662 47.576C138.758 49.336 138.806 51.576 138.806 54.296L138.662 59.912C138.662 60.136 138.134 60.344 137.078 60.536C136.022 60.76 135.174 60.872 134.534 60.872L132.95 60.632C133.27 57.752 133.43 54.968 133.43 52.28C133.43 49.56 133.254 47.528 132.902 46.184C132.55 44.808 131.846 44.12 130.79 44.12C129.734 44.12 128.87 44.408 128.198 44.984C127.558 45.56 127.142 46.136 126.95 46.712L126.614 47.528V48.2ZM149.215 27.56C149.151 28.296 149.071 30.312 148.975 33.608C151.375 33.608 152.575 33.656 152.575 33.752C152.575 34.84 152.415 35.816 152.095 36.68C151.775 37.512 151.471 37.928 151.183 37.928H148.927C148.863 42.664 148.831 46.52 148.831 49.496C148.831 52.44 148.879 54.408 148.975 55.4C149.167 57.064 149.823 58.424 150.943 59.48C150.943 59.832 150.319 60.344 149.071 61.016C147.855 61.688 146.703 62.024 145.615 62.024C145.519 62.024 145.327 61.864 145.039 61.544C144.783 61.224 144.495 60.696 144.175 59.96C143.887 59.224 143.695 58.504 143.599 57.8C143.535 57.096 143.503 54.584 143.503 50.264C143.503 45.944 143.551 41.864 143.647 38.024L140.959 38.072C140.799 37.912 140.719 37.224 140.719 36.008C140.719 34.76 140.863 34.008 141.151 33.752C141.855 33.72 142.703 33.688 143.695 33.656C143.695 31.8 143.647 30.6 143.551 30.056C143.455 29.512 143.407 29.192 143.407 29.096C143.407 28.776 143.951 28.408 145.039 27.992C146.159 27.576 147.135 27.368 147.967 27.368C148.799 27.368 149.215 27.432 149.215 27.56ZM154.179 49.688L154.035 33.032C154.035 29.928 154.115 28.296 154.275 28.136C154.659 27.752 155.283 27.384 156.147 27.032C157.011 26.68 157.843 26.504 158.643 26.504C159.443 26.504 159.843 26.568 159.843 26.696C159.811 26.984 159.747 29.08 159.651 32.984C159.555 36.888 159.507 39.448 159.507 40.664V41.096C159.507 41.256 159.555 41.336 159.651 41.336L160.611 40.376C160.963 40.056 161.667 39.624 162.723 39.08C163.811 38.504 164.819 38.216 165.747 38.216C166.707 38.216 167.491 38.376 168.099 38.696C168.739 39.016 169.267 39.4 169.683 39.848C170.099 40.296 170.451 40.952 170.739 41.816C171.027 42.648 171.235 43.432 171.363 44.168C171.523 44.872 171.651 45.848 171.747 47.096C171.843 48.792 171.891 50.936 171.891 53.528L171.699 59.912C171.603 60.168 171.059 60.392 170.067 60.584C169.075 60.776 168.259 60.872 167.619 60.872L166.035 60.632C166.355 57.752 166.515 54.984 166.515 52.328C166.515 49.672 166.323 47.656 165.939 46.28C165.555 44.904 164.771 44.216 163.587 44.216C162.819 44.216 162.099 44.52 161.427 45.128C160.755 45.736 160.291 46.344 160.035 46.952L159.603 47.864C159.667 50.072 159.699 52.44 159.699 54.968C159.699 57.496 159.619 58.824 159.459 58.952C158.499 59.816 156.739 60.248 154.179 60.248C153.923 60.248 153.795 60.2 153.795 60.104C154.051 58.696 154.179 55.224 154.179 49.688ZM192.458 48.296C192.458 52.296 192.506 54.632 192.602 55.304C192.858 57.064 193.402 58.328 194.234 59.096C194.234 59.448 193.594 59.976 192.314 60.68C191.066 61.384 189.93 61.736 188.906 61.736C188.618 61.736 188.314 61.304 187.994 60.44C187.674 59.608 187.482 58.984 187.418 58.568C187.386 58.152 187.354 57.944 187.322 57.944L187.178 58.04C185.482 59.384 183.498 60.056 181.226 60.056C178.954 60.056 177.194 59.512 175.946 58.424C174.73 57.304 174.122 55.848 174.122 54.056C174.122 52.264 174.506 50.76 175.274 49.544C176.074 48.296 177.002 47.352 178.058 46.712C179.114 46.072 180.282 45.56 181.562 45.176C183.514 44.536 185.05 44.216 186.17 44.216L186.266 44.168C186.266 42.6 184.282 41.816 180.314 41.816C178.746 41.816 177.578 41.88 176.81 42.008H176.762C176.762 41.368 176.954 40.568 177.338 39.608C177.754 38.648 178.09 38.024 178.346 37.736C178.634 37.448 179.786 37.304 181.802 37.304C185.45 37.304 188.138 38.008 189.866 39.416C191.594 40.792 192.458 42.936 192.458 45.848V48.296ZM187.13 51.368V49.544C187.13 48.84 187.114 48.488 187.082 48.488C184.938 48.488 183.082 49.048 181.514 50.168C180.522 50.872 180.026 51.752 180.026 52.808C180.026 53.48 180.266 54.04 180.746 54.488C181.226 54.936 181.946 55.16 182.906 55.16C183.898 55.16 184.842 54.872 185.738 54.296C186.666 53.72 187.13 52.744 187.13 51.368Z" fill="#FF7262"/>
<path d="M57.504 77.728C61.28 77.376 64.048 76.496 65.808 75.088C67.6 73.648 68.496 72.24 68.496 70.864C68.496 69.456 67.808 68.432 66.432 67.792C65.056 67.12 63.312 66.784 61.2 66.784C60.08 66.784 58.944 66.88 57.792 67.072C57.6 68.448 57.504 72 57.504 77.728ZM58.032 94.288C57.68 94.64 56.976 94.912 55.92 95.104C54.864 95.328 53.984 95.44 53.28 95.44C52.576 95.44 51.968 95.344 51.456 95.152L51.744 67.456C51.328 66.944 50.912 66.096 50.496 64.912C50.112 63.728 49.92 63.008 49.92 62.752C49.92 62.464 49.952 62.288 50.016 62.224C50.08 62.128 51.088 62.032 53.04 61.936C55.024 61.808 57.024 61.744 59.04 61.744C61.056 61.744 62.848 61.856 64.416 62.08C65.984 62.304 67.616 62.704 69.312 63.28C71.008 63.824 72.352 64.704 73.344 65.92C74.336 67.136 74.832 68.704 74.832 70.624C74.832 72.512 74.16 74.272 72.816 75.904C71.472 77.536 69.648 78.912 67.344 80.032C67.344 80.544 68.352 82.848 70.368 86.944C72.384 91.008 73.984 93.632 75.168 94.816C75.2 94.848 75.216 94.896 75.216 94.96C75.216 95.056 74.96 95.216 74.448 95.44C73.04 96.112 71.52 96.448 69.888 96.448L68.688 96.352C67.984 95.648 66.752 93.312 64.992 89.344C63.264 85.376 62.304 82.944 62.112 82.048C61.728 82.272 60.208 82.608 57.552 83.056C57.616 89.488 57.776 93.232 58.032 94.288ZM94.7704 83.296C94.7704 87.296 94.8184 89.632 94.9144 90.304C95.1704 92.064 95.7144 93.328 96.5464 94.096C96.5464 94.448 95.9064 94.976 94.6264 95.68C93.3784 96.384 92.2424 96.736 91.2184 96.736C90.9304 96.736 90.6264 96.304 90.3064 95.44C89.9864 94.608 89.7944 93.984 89.7304 93.568C89.6984 93.152 89.6664 92.944 89.6344 92.944L89.4904 93.04C87.7944 94.384 85.8104 95.056 83.5384 95.056C81.2664 95.056 79.5064 94.512 78.2584 93.424C77.0424 92.304 76.4344 90.848 76.4344 89.056C76.4344 87.264 76.8184 85.76 77.5864 84.544C78.3864 83.296 79.3144 82.352 80.3704 81.712C81.4264 81.072 82.5944 80.56 83.8744 80.176C85.8264 79.536 87.3624 79.216 88.4824 79.216L88.5784 79.168C88.5784 77.6 86.5944 76.816 82.6264 76.816C81.0584 76.816 79.8904 76.88 79.1224 77.008H79.0744C79.0744 76.368 79.2664 75.568 79.6504 74.608C80.0664 73.648 80.4024 73.024 80.6584 72.736C80.9464 72.448 82.0984 72.304 84.1144 72.304C87.7624 72.304 90.4504 73.008 92.1784 74.416C93.9064 75.792 94.7704 77.936 94.7704 80.848V83.296ZM89.4424 86.368V84.544C89.4424 83.84 89.4264 83.488 89.3944 83.488C87.2504 83.488 85.3944 84.048 83.8264 85.168C82.8344 85.872 82.3384 86.752 82.3384 87.808C82.3384 88.48 82.5784 89.04 83.0584 89.488C83.5384 89.936 84.2584 90.16 85.2184 90.16C86.2104 90.16 87.1544 89.872 88.0504 89.296C88.9784 88.72 89.4424 87.744 89.4424 86.368ZM112.685 88.48C112.685 90.208 111.869 91.76 110.237 93.136C108.637 94.48 106.893 95.44 105.005 96.016C103.149 96.624 101.517 96.928 100.109 96.928C99.9489 96.928 99.7249 96.736 99.4369 96.352C98.6369 95.296 98.2369 94.064 98.2369 92.656V92.32C100.733 92.32 102.637 91.888 103.949 91.024C105.261 90.16 105.917 89.264 105.917 88.336C105.917 87.728 105.517 87.088 104.717 86.416C103.917 85.744 103.037 85.152 102.077 84.64C101.117 84.128 100.237 83.456 99.4369 82.624C98.6369 81.76 98.2369 80.864 98.2369 79.936C98.2369 77.984 99.4529 76.192 101.885 74.56C104.317 72.928 106.909 72.112 109.661 72.112C109.981 72.112 110.397 72.56 110.909 73.456C111.421 74.32 111.693 75.216 111.725 76.144C111.085 76.144 110.125 76.336 108.845 76.72C106.317 77.52 105.053 78.512 105.053 79.696C105.053 80.528 106.301 81.664 108.797 83.104C109.757 83.648 110.637 84.4 111.437 85.36C112.237 86.32 112.653 87.36 112.685 88.48ZM116.21 84.688L116.066 68.032C116.066 64.928 116.146 63.296 116.306 63.136C116.69 62.752 117.314 62.384 118.178 62.032C119.042 61.68 119.874 61.504 120.674 61.504C121.474 61.504 121.874 61.568 121.874 61.696C121.842 61.984 121.778 64.08 121.682 67.984C121.586 71.888 121.538 74.448 121.538 75.664V76.096C121.538 76.256 121.586 76.336 121.682 76.336L122.642 75.376C122.994 75.056 123.698 74.624 124.754 74.08C125.842 73.504 126.85 73.216 127.778 73.216C128.738 73.216 129.522 73.376 130.13 73.696C130.77 74.016 131.298 74.4 131.714 74.848C132.13 75.296 132.482 75.952 132.77 76.816C133.058 77.648 133.266 78.432 133.394 79.168C133.554 79.872 133.682 80.848 133.778 82.096C133.874 83.792 133.922 85.936 133.922 88.528L133.73 94.912C133.634 95.168 133.09 95.392 132.098 95.584C131.106 95.776 130.29 95.872 129.65 95.872L128.066 95.632C128.386 92.752 128.546 89.984 128.546 87.328C128.546 84.672 128.354 82.656 127.97 81.28C127.586 79.904 126.802 79.216 125.618 79.216C124.85 79.216 124.13 79.52 123.458 80.128C122.786 80.736 122.322 81.344 122.066 81.952L121.634 82.864C121.698 85.072 121.73 87.44 121.73 89.968C121.73 92.496 121.65 93.824 121.49 93.952C120.53 94.816 118.77 95.248 116.21 95.248C115.954 95.248 115.826 95.2 115.826 95.104C116.082 93.696 116.21 90.224 116.21 84.688ZM137.97 88.048L137.826 76.768C137.826 74.72 137.906 73.616 138.066 73.456C138.45 73.104 139.042 72.784 139.842 72.496C140.642 72.176 141.41 72.016 142.146 72.016C142.882 72.016 143.25 72.08 143.25 72.208C143.122 73.616 143.058 74.688 143.058 75.424C143.058 76.16 143.09 76.528 143.154 76.528C143.218 76.528 143.314 76.464 143.442 76.336C143.57 76.176 143.794 75.952 144.114 75.664C144.466 75.344 145.09 74.928 145.986 74.416C146.914 73.872 147.762 73.6 148.53 73.6C150.61 73.6 152.178 74.528 153.234 76.384C155.058 73.824 157.074 72.544 159.282 72.544C161.266 72.544 162.69 73.392 163.554 75.088C164.45 76.976 164.978 78.864 165.138 80.752C165.33 83.504 165.426 86.352 165.426 89.296L165.234 94.912C165.234 95.136 164.706 95.344 163.65 95.536C162.594 95.76 161.746 95.872 161.106 95.872L159.57 95.632C159.922 92.464 160.098 89.904 160.098 87.952C160.098 86 160.066 84.608 160.002 83.776C159.97 82.912 159.858 82.064 159.666 81.232C159.474 80.368 159.17 79.76 158.754 79.408C158.37 79.024 157.874 78.832 157.266 78.832C156.658 78.832 156.114 79.008 155.634 79.36C155.154 79.68 154.802 80 154.578 80.32C154.386 80.64 154.29 80.848 154.29 80.944C154.386 81.968 154.434 84.336 154.434 88.048L154.242 91.84C154.242 92.096 153.73 92.32 152.706 92.512C151.682 92.704 150.85 92.8 150.21 92.8L148.674 92.56C148.962 89.968 149.106 87.552 149.106 85.312C149.106 83.04 148.978 81.456 148.722 80.56C148.498 79.632 147.874 79.168 146.85 79.168C145.826 79.168 144.962 79.68 144.258 80.704C143.554 81.728 143.202 82.512 143.202 83.056V84.064L143.25 89.152C143.25 92.288 143.186 93.936 143.058 94.096C142.258 94.864 140.578 95.248 138.018 95.248C137.762 95.248 137.634 95.2 137.634 95.104C137.858 93.728 137.97 91.376 137.97 88.048ZM173.152 65.344C174.048 65.344 174.768 65.632 175.312 66.208C175.856 66.784 176.128 67.536 176.128 68.464C176.128 69.392 175.76 70.192 175.024 70.864C174.32 71.504 173.52 71.824 172.624 71.824C171.76 71.824 171.056 71.552 170.512 71.008C170 70.432 169.744 69.68 169.744 68.752C169.744 67.824 170.096 67.024 170.8 66.352C171.504 65.68 172.288 65.344 173.152 65.344ZM175.6 77.296L175.504 85.072C175.504 87.568 175.568 89.408 175.696 90.592C175.856 91.744 176.272 92.832 176.944 93.856C176.944 94.176 176.288 94.688 174.976 95.392C173.664 96.096 172.544 96.448 171.616 96.448C171.328 96.448 171.04 95.968 170.752 95.008C170.464 94.048 170.272 93.136 170.176 92.272C170.112 91.408 170.08 88.496 170.08 83.536C170.08 78.576 170.192 75.872 170.416 75.424C171.152 74.848 172.448 74.56 174.304 74.56C175.04 74.56 175.488 74.656 175.648 74.848L175.6 77.296ZM180.675 84.688L180.531 68.032C180.531 64.928 180.611 63.296 180.771 63.136C181.155 62.752 181.779 62.384 182.643 62.032C183.507 61.68 184.339 61.504 185.139 61.504C185.939 61.504 186.339 61.568 186.339 61.696C186.307 61.856 186.227 64.096 186.099 68.416C186.003 72.736 185.955 75.536 185.955 76.816C185.955 78.064 185.971 78.784 186.003 78.976C186.035 79.136 186.099 79.216 186.195 79.216L186.291 79.168C187.315 78.08 188.835 76.72 190.851 75.088C192.867 73.456 194.163 72.64 194.739 72.64C196.627 73.824 197.571 74.784 197.571 75.52C196.611 76.128 195.475 76.96 194.163 78.016C192.851 79.072 192.131 79.744 192.003 80.032C192.003 80.288 192.275 81.216 192.819 82.816C193.395 84.384 194.227 86.24 195.315 88.384C196.403 90.528 197.491 92.144 198.579 93.232C198.579 93.616 197.875 94.096 196.467 94.672C195.059 95.248 193.843 95.536 192.819 95.536C192.435 95.536 191.683 94.032 190.563 91.024C189.475 88.016 188.723 85.68 188.307 84.016L188.211 83.872C188.083 83.872 187.683 84.336 187.011 85.264C186.339 86.192 186.003 86.816 186.003 87.136L186.147 92.032C186.147 93.184 186.083 93.824 185.955 93.952C185.539 94.368 184.819 94.688 183.795 94.912C182.771 95.136 181.923 95.248 181.251 95.248C180.611 95.248 180.291 95.2 180.291 95.104C180.547 93.696 180.675 90.224 180.675 84.688ZM217.63 83.296C217.63 87.296 217.678 89.632 217.774 90.304C218.03 92.064 218.574 93.328 219.406 94.096C219.406 94.448 218.766 94.976 217.486 95.68C216.238 96.384 215.102 96.736 214.078 96.736C213.79 96.736 213.486 96.304 213.166 95.44C212.846 94.608 212.654 93.984 212.59 93.568C212.558 93.152 212.526 92.944 212.494 92.944L212.35 93.04C210.654 94.384 208.67 95.056 206.398 95.056C204.126 95.056 202.366 94.512 201.118 93.424C199.902 92.304 199.294 90.848 199.294 89.056C199.294 87.264 199.678 85.76 200.446 84.544C201.246 83.296 202.174 82.352 203.23 81.712C204.286 81.072 205.454 80.56 206.734 80.176C208.686 79.536 210.222 79.216 211.342 79.216L211.438 79.168C211.438 77.6 209.454 76.816 205.486 76.816C203.918 76.816 202.75 76.88 201.982 77.008H201.934C201.934 76.368 202.126 75.568 202.51 74.608C202.926 73.648 203.262 73.024 203.518 72.736C203.806 72.448 204.958 72.304 206.974 72.304C210.622 72.304 213.31 73.008 215.038 74.416C216.766 75.792 217.63 77.936 217.63 80.848V83.296ZM212.302 86.368V84.544C212.302 83.84 212.286 83.488 212.254 83.488C210.11 83.488 208.254 84.048 206.686 85.168C205.694 85.872 205.198 86.752 205.198 87.808C205.198 88.48 205.438 89.04 205.918 89.488C206.398 89.936 207.118 90.16 208.078 90.16C209.07 90.16 210.014 89.872 210.91 89.296C211.838 88.72 212.302 87.744 212.302 86.368Z" fill="#2C2B2E"/>
<path d="M234.975 83.44C236.222 84.6867 236.845 86.19 236.845 87.95C236.845 89.71 236.148 91.2867 234.755 92.68C233.435 94 231.895 94.66 230.135 94.66C228.375 94.66 226.908 94.0733 225.735 92.9C224.562 91.6533 223.975 90.1133 223.975 88.28C223.975 86.3733 224.598 84.7967 225.845 83.55C227.165 82.23 228.705 81.57 230.465 81.57C232.225 81.57 233.728 82.1933 234.975 83.44Z" fill="#FF7262"/>
</svg>
