<svg width="149" height="45" viewBox="0 0 149 45" fill="none" xmlns="http://www.w3.org/2000/svg">
<path d="M40 4.5H132C141.389 4.5 149 12.1112 149 21.5V41.5H40V4.5Z" fill="#FF7262"/>
<path d="M10.7599 11.1818H14.6804V26.5227C14.6733 27.929 14.375 29.1399 13.7855 30.1555C13.196 31.1641 12.3722 31.9418 11.3139 32.4886C10.2628 33.0284 9.03764 33.2983 7.63849 33.2983C6.36009 33.2983 5.20952 33.071 4.18679 32.6165C3.17116 32.1548 2.36506 31.473 1.76847 30.571C1.17188 29.669 0.87358 28.5469 0.87358 27.2045H4.80469C4.81179 27.794 4.93963 28.3018 5.18821 28.728C5.44389 29.1541 5.79545 29.4808 6.2429 29.7081C6.69034 29.9354 7.20526 30.049 7.78764 30.049C8.41974 30.049 8.95597 29.9176 9.39631 29.6548C9.83665 29.3849 10.1705 28.9872 10.3977 28.4616C10.6321 27.9361 10.7528 27.2898 10.7599 26.5227V11.1818ZM18.9684 33V11.1818H27.1502C28.8263 11.1818 30.2326 11.473 31.369 12.0554C32.5124 12.6378 33.3754 13.4545 33.9577 14.5057C34.5472 15.5497 34.842 16.7678 34.842 18.1598C34.842 19.5589 34.5437 20.7734 33.9471 21.8033C33.3576 22.826 32.4876 23.6179 31.337 24.179C30.1864 24.733 28.7731 25.0099 27.0969 25.0099H21.2695V21.7287H26.5643C27.5444 21.7287 28.3469 21.5937 28.9719 21.3239C29.5969 21.0469 30.0586 20.6456 30.3569 20.12C30.6623 19.5874 30.815 18.9339 30.815 18.1598C30.815 17.3857 30.6623 16.7251 30.3569 16.1783C30.0515 15.6243 29.5863 15.2053 28.9613 14.9212C28.3363 14.63 27.5302 14.4844 26.543 14.4844H22.9208V33H18.9684ZM30.2397 23.1136L35.641 33H31.2305L25.9251 23.1136H30.2397Z" fill="black"/>
<path d="M53.315 33H45.9215V11.1818H53.4641C55.6303 11.1818 57.4911 11.6186 59.0465 12.4922C60.609 13.3587 61.8093 14.6051 62.6474 16.2315C63.4854 17.858 63.9045 19.804 63.9045 22.0696C63.9045 24.3423 63.4819 26.2955 62.6367 27.929C61.7987 29.5625 60.5877 30.8161 59.0039 31.6896C57.4272 32.5632 55.5309 33 53.315 33ZM49.8739 29.5803H53.1232C54.6431 29.5803 55.9109 29.3033 56.9265 28.7493C57.9421 28.1882 58.7056 27.3537 59.217 26.2457C59.7283 25.1307 59.984 23.7386 59.984 22.0696C59.984 20.4006 59.7283 19.0156 59.217 17.9148C58.7056 16.8068 57.9492 15.9794 56.9478 15.4325C55.9535 14.8786 54.7177 14.6016 53.2404 14.6016H49.8739V29.5803ZM74.7337 33.3196C73.093 33.3196 71.6761 32.9787 70.483 32.2969C69.2969 31.608 68.3842 30.6349 67.745 29.3778C67.1058 28.1136 66.7862 26.6257 66.7862 24.9141C66.7862 23.2308 67.1058 21.7536 67.745 20.4822C68.3913 19.2038 69.2933 18.2095 70.451 17.4993C71.6087 16.782 72.9688 16.4233 74.5312 16.4233C75.5398 16.4233 76.4915 16.5866 77.3864 16.9134C78.2884 17.233 79.0838 17.7301 79.7727 18.4048C80.4688 19.0795 81.0156 19.9389 81.4134 20.983C81.8111 22.0199 82.0099 23.2557 82.0099 24.6903V25.8729H68.5973V23.2734H78.3132C78.3061 22.5348 78.1463 21.8778 77.8338 21.3026C77.5213 20.7202 77.0845 20.2621 76.5234 19.9283C75.9695 19.5945 75.3232 19.4276 74.5845 19.4276C73.7962 19.4276 73.1037 19.6193 72.5071 20.0028C71.9105 20.3793 71.4453 20.8764 71.1115 21.4943C70.7848 22.1051 70.6179 22.7763 70.6108 23.5078V25.777C70.6108 26.7287 70.7848 27.5455 71.1328 28.2273C71.4808 28.902 71.9673 29.4205 72.5923 29.7827C73.2173 30.1378 73.9489 30.3153 74.7869 30.3153C75.348 30.3153 75.8558 30.2372 76.3104 30.081C76.7649 29.9176 77.1591 29.6797 77.4929 29.3672C77.8267 29.0547 78.0788 28.6676 78.2493 28.206L81.8501 28.6108C81.6229 29.5625 81.1896 30.3935 80.5504 31.1037C79.9183 31.8068 79.1087 32.3537 78.1214 32.7443C77.1342 33.1278 76.005 33.3196 74.7337 33.3196ZM98.2058 20.9616L94.6902 21.3452C94.5907 20.9901 94.4167 20.6562 94.1681 20.3438C93.9267 20.0312 93.6 19.7791 93.188 19.5874C92.7761 19.3956 92.2718 19.2997 91.6752 19.2997C90.8727 19.2997 90.198 19.4737 89.6511 19.8217C89.1113 20.1697 88.845 20.6207 88.8521 21.1747C88.845 21.6506 89.019 22.0376 89.3741 22.3359C89.7363 22.6342 90.3329 22.8793 91.1639 23.071L93.9551 23.6676C95.5034 24.0014 96.6539 24.5305 97.4068 25.255C98.1667 25.9794 98.5502 26.9276 98.5574 28.0994C98.5502 29.1293 98.2484 30.0384 97.6518 30.8267C97.0623 31.608 96.242 32.2187 95.1909 32.6591C94.1397 33.0994 92.9324 33.3196 91.5687 33.3196C89.5659 33.3196 87.9537 32.9006 86.7321 32.0625C85.5105 31.2173 84.7825 30.0419 84.5481 28.5362L88.3088 28.174C88.4792 28.9126 88.8414 29.4702 89.3954 29.8466C89.9494 30.223 90.6703 30.4112 91.5581 30.4112C92.4743 30.4112 93.2093 30.223 93.7633 29.8466C94.3244 29.4702 94.6049 29.005 94.6049 28.451C94.6049 27.9822 94.4238 27.5952 94.0616 27.2898C93.7065 26.9844 93.1525 26.75 92.3997 26.5866L89.6085 26.0007C88.0389 25.674 86.8777 25.1236 86.1248 24.3494C85.372 23.5682 84.9991 22.581 85.0062 21.3878C84.9991 20.3793 85.2725 19.5057 85.8265 18.767C86.3876 18.0213 87.1653 17.446 88.1596 17.0412C89.161 16.6293 90.3152 16.4233 91.622 16.4233C93.5396 16.4233 95.0488 16.8317 96.1497 17.6484C97.2576 18.4652 97.943 19.5696 98.2058 20.9616ZM101.737 33V16.6364H105.594V33H101.737ZM103.676 14.3139C103.066 14.3139 102.54 14.1115 102.1 13.7067C101.659 13.2947 101.439 12.8011 101.439 12.2259C101.439 11.6435 101.659 11.1499 102.1 10.745C102.54 10.3331 103.066 10.1271 103.676 10.1271C104.294 10.1271 104.82 10.3331 105.253 10.745C105.693 11.1499 105.914 11.6435 105.914 12.2259C105.914 12.8011 105.693 13.2947 105.253 13.7067C104.82 14.1115 104.294 14.3139 103.676 14.3139ZM116.676 39.4773C115.291 39.4773 114.102 39.2891 113.107 38.9126C112.113 38.5433 111.314 38.0462 110.71 37.4212C110.107 36.7962 109.688 36.1037 109.453 35.3438L112.926 34.5021C113.082 34.8217 113.31 35.1378 113.608 35.4503C113.906 35.7699 114.308 36.0327 114.812 36.2386C115.323 36.4517 115.966 36.5582 116.74 36.5582C117.834 36.5582 118.739 36.2919 119.457 35.7592C120.174 35.2337 120.533 34.3672 120.533 33.1598V30.0597H120.341C120.142 30.4574 119.851 30.8658 119.467 31.2848C119.091 31.7038 118.59 32.0554 117.965 32.3395C117.347 32.6236 116.57 32.7656 115.632 32.7656C114.375 32.7656 113.235 32.4709 112.212 31.8814C111.197 31.2848 110.387 30.397 109.783 29.218C109.187 28.032 108.888 26.5476 108.888 24.7649C108.888 22.968 109.187 21.4517 109.783 20.2159C110.387 18.973 111.2 18.032 112.223 17.3928C113.246 16.7464 114.386 16.4233 115.643 16.4233C116.602 16.4233 117.39 16.5866 118.008 16.9134C118.633 17.233 119.13 17.62 119.499 18.0746C119.869 18.522 120.149 18.9446 120.341 19.3423H120.554V16.6364H124.357V33.2663C124.357 34.6655 124.023 35.8232 123.356 36.7393C122.688 37.6555 121.776 38.3409 120.618 38.7955C119.46 39.25 118.146 39.4773 116.676 39.4773ZM116.708 29.7401C117.525 29.7401 118.221 29.5412 118.796 29.1435C119.371 28.7457 119.808 28.174 120.107 27.4283C120.405 26.6825 120.554 25.7876 120.554 24.7436C120.554 23.7138 120.405 22.8118 120.107 22.0376C119.815 21.2635 119.382 20.6634 118.807 20.2372C118.239 19.804 117.539 19.5874 116.708 19.5874C115.849 19.5874 115.131 19.8111 114.556 20.2585C113.981 20.706 113.548 21.3203 113.256 22.1016C112.965 22.8757 112.82 23.7564 112.82 24.7436C112.82 25.745 112.965 26.6222 113.256 27.375C113.555 28.1207 113.991 28.7031 114.567 29.1222C115.149 29.5341 115.863 29.7401 116.708 29.7401ZM132.166 23.4119V33H128.31V16.6364H131.996V19.4169H132.188C132.564 18.5007 133.164 17.7727 133.988 17.233C134.819 16.6932 135.845 16.4233 137.067 16.4233C138.196 16.4233 139.18 16.6648 140.018 17.1477C140.863 17.6307 141.516 18.3303 141.978 19.2464C142.447 20.1626 142.678 21.2741 142.67 22.581V33H138.814V23.1776C138.814 22.0838 138.53 21.228 137.962 20.6101C137.401 19.9922 136.623 19.6832 135.629 19.6832C134.954 19.6832 134.354 19.8324 133.828 20.1307C133.31 20.4219 132.901 20.8445 132.603 21.3984C132.312 21.9524 132.166 22.6236 132.166 23.4119Z" fill="white"/>
</svg>
