<svg width="78" height="14" viewBox="0 0 78 14" fill="none" xmlns="http://www.w3.org/2000/svg">
<path d="M7.58442 2.6695L7.6197 6.0384C7.6197 8.40191 7.5609 9.82473 7.44332 10.3068C7.20814 11.2593 6.74955 11.9825 6.06754 12.4763C5.38553 12.9584 4.58005 13.1995 3.65111 13.1995C3.25131 13.1995 2.88678 13.1642 2.55754 13.0937C2.24005 13.0231 2.02251 12.9526 1.90492 12.882L1.72854 12.7585C1.31698 13.076 0.828995 13.2348 0.264573 13.2348C0.146985 13.2348 0.0823115 13.2289 0.0705528 13.2171L0 12.3176C0 10.7537 0.0646734 9.62483 0.19402 8.93106L0.264573 8.54302C0.335126 8.44895 0.552663 8.349 0.917186 8.24317C1.28171 8.12558 1.60508 8.06679 1.88729 8.06679C1.88729 9.36025 2.04015 10.2304 2.34588 10.6772C2.65161 11.1123 3.11608 11.3299 3.7393 11.3299C4.85638 11.3299 5.41492 10.2892 5.41492 8.20789L5.43256 5.4387C5.43256 4.00412 5.36789 3.22216 5.23854 3.09282C5.00337 2.85764 4.51538 2.74005 3.77457 2.74005H3.70402C3.65698 2.71654 3.63347 2.59895 3.63347 2.38729C3.63347 2.17563 3.66286 1.95809 3.72166 1.73468C3.78045 1.51126 3.82749 1.38191 3.86276 1.34664C3.9098 1.2996 4.09794 1.24081 4.42719 1.17025C5.41492 0.982114 6.53789 0.888044 7.79608 0.888044C7.9607 0.888044 8.04302 0.899802 8.04302 0.92332C8.04302 1.20553 7.96658 1.56417 7.81372 1.99925C7.66085 2.43433 7.58442 2.65774 7.58442 2.6695ZM13.526 7.16724C13.526 6.82623 13.3438 6.65573 12.9792 6.65573C12.4971 6.65573 12.0738 6.90267 11.7093 7.39654C11.3448 7.8904 11.1625 8.48422 11.1625 9.17799C11.1625 9.34262 11.186 9.42493 11.2331 9.42493C11.6564 9.41317 12.1444 9.17211 12.697 8.70176C13.2497 8.21965 13.526 7.70814 13.526 7.16724ZM15.0606 12.7762C14.6608 13.0466 13.8788 13.1819 12.7147 13.1819C11.5506 13.1819 10.6569 12.835 10.0337 12.1412C9.41045 11.4474 9.09884 10.5244 9.09884 9.37201C9.09884 8.20789 9.46925 7.20252 10.2101 6.35588C10.9626 5.49749 12.015 5.06829 13.3673 5.06829C13.9199 5.06829 14.4256 5.21528 14.8842 5.50925C15.3545 5.80322 15.5897 6.32061 15.5897 7.06141C15.5897 7.79046 15.2663 8.51362 14.6196 9.23091C13.9846 9.94819 13.1145 10.495 12.0091 10.8713C12.0091 11.0124 12.1503 11.13 12.4325 11.224C12.7264 11.3063 13.0145 11.3475 13.2967 11.3475C14.1904 11.3475 14.8959 11.1887 15.4133 10.8713C15.4251 10.8595 15.4427 10.8536 15.4662 10.8536C15.4897 10.8536 15.5015 10.9653 15.5015 11.1887C15.5015 11.8708 15.3545 12.3999 15.0606 12.7762ZM20.9843 7.16724C20.9843 6.82623 20.8021 6.65573 20.4376 6.65573C19.9554 6.65573 19.5321 6.90267 19.1676 7.39654C18.8031 7.8904 18.6208 8.48422 18.6208 9.17799C18.6208 9.34262 18.6443 9.42493 18.6914 9.42493C19.1147 9.41317 19.6027 9.17211 20.1553 8.70176C20.708 8.21965 20.9843 7.70814 20.9843 7.16724ZM22.5189 12.7762C22.1191 13.0466 21.3371 13.1819 20.173 13.1819C19.0089 13.1819 18.1152 12.835 17.492 12.1412C16.8688 11.4474 16.5572 10.5244 16.5572 9.37201C16.5572 8.20789 16.9276 7.20252 17.6684 6.35588C18.4209 5.49749 19.4733 5.06829 20.8256 5.06829C21.3783 5.06829 21.8839 5.21528 22.3425 5.50925C22.8128 5.80322 23.048 6.32061 23.048 7.06141C23.048 7.79046 22.7246 8.51362 22.0779 9.23091C21.4429 9.94819 20.5728 10.495 19.4675 10.8713C19.4675 11.0124 19.6086 11.13 19.8908 11.224C20.1847 11.3063 20.4728 11.3475 20.755 11.3475C21.6487 11.3475 22.3542 11.1887 22.8716 10.8713C22.8834 10.8595 22.901 10.8536 22.9245 10.8536C22.9481 10.8536 22.9598 10.9653 22.9598 11.1887C22.9598 11.8708 22.8128 12.3999 22.5189 12.7762ZM29.1835 5.93257C29.9713 5.93257 30.377 6.009 30.4005 6.16186C30.7886 8.36076 31.1002 9.70126 31.3353 10.1834H31.4059C31.6646 9.63071 31.9527 8.66648 32.2702 7.29071C32.5877 5.91493 32.7699 4.93895 32.817 4.36277C33.5225 4.36277 34.0987 4.48623 34.5455 4.73317C34.6866 4.80372 34.7572 4.85076 34.7572 4.87427C34.7572 5.39166 34.5749 6.30297 34.2104 7.60819C33.8576 8.91342 33.499 10.1011 33.1344 11.1711C32.7817 12.2294 32.5818 12.7821 32.5347 12.8291C32.4877 12.8761 32.2819 12.9232 31.9174 12.9702C31.5529 13.029 31.2178 13.0584 30.912 13.0584C30.6063 13.0584 30.4064 13.0349 30.3123 12.9878C30.2065 12.882 30.0125 12.3117 29.7303 11.2769C29.4481 10.2422 29.254 9.36613 29.1482 8.64885H29.0953C28.9189 9.36613 28.6779 10.2128 28.3721 11.1887C28.0782 12.1647 27.8959 12.6939 27.8253 12.7762C27.7548 12.8467 27.5196 12.9173 27.1198 12.9878C26.72 13.0702 26.4025 13.1113 26.1674 13.1113C25.9322 13.1113 25.797 13.0937 25.7617 13.0584C25.6676 12.9761 25.3148 11.812 24.7034 9.56603C24.0919 7.3201 23.7862 5.91493 23.7862 5.35051C23.7862 5.32699 23.845 5.27995 23.9626 5.2094C24.0919 5.12709 24.3095 5.05066 24.6152 4.9801C24.9327 4.89779 25.2855 4.85664 25.6735 4.85664C26.1086 7.42005 26.5084 9.10744 26.8729 9.9188C26.8964 9.97759 26.9258 9.97759 26.9611 9.9188C27.161 9.53076 27.3668 8.93106 27.5784 8.1197C27.7901 7.30834 27.9194 6.65573 27.9665 6.16186C27.9782 6.10307 28.1193 6.05015 28.3898 6.00312C28.6602 5.95608 28.9248 5.93257 29.1835 5.93257ZM42.2402 8.84287C42.2402 10.3127 42.2578 11.1711 42.2931 11.418C42.3871 12.0648 42.587 12.5292 42.8928 12.8115C42.8928 12.9408 42.6576 13.1348 42.1872 13.3935C41.7287 13.6522 41.3112 13.7816 40.9349 13.7816C40.8291 13.7816 40.7174 13.6228 40.5998 13.3053C40.4822 12.9996 40.4117 12.7703 40.3882 12.6174C40.3764 12.4646 40.3646 12.3881 40.3529 12.3881L40.3 12.4234C39.6767 12.9173 38.9477 13.1642 38.1128 13.1642C37.2779 13.1642 36.6312 12.9643 36.1726 12.5645C35.7258 12.153 35.5024 11.6179 35.5024 10.9594C35.5024 10.301 35.6435 9.74829 35.9257 9.30146C36.2197 8.84287 36.5607 8.49598 36.9487 8.26081C37.3367 8.02563 37.7659 7.83749 38.2363 7.69638C38.9536 7.46121 39.518 7.34362 39.9296 7.34362L39.9648 7.32598C39.9648 6.7498 39.2358 6.46171 37.7777 6.46171C37.2015 6.46171 36.7723 6.48523 36.4901 6.53226H36.4725C36.4725 6.29709 36.543 6.00312 36.6841 5.65036C36.837 5.29759 36.9605 5.06829 37.0545 4.96247C37.1604 4.85664 37.5837 4.80372 38.3245 4.80372C39.665 4.80372 40.6527 5.06242 41.2877 5.5798C41.9227 6.08543 42.2402 6.87327 42.2402 7.94332V8.84287ZM40.2823 9.97171V9.30146C40.2823 9.04277 40.2764 8.91342 40.2647 8.91342C39.4768 8.91342 38.7948 9.1192 38.2187 9.53076C37.8541 9.78945 37.6719 10.1128 37.6719 10.5009C37.6719 10.7478 37.7601 10.9536 37.9364 11.1182C38.1128 11.2828 38.3774 11.3651 38.7302 11.3651C39.0947 11.3651 39.4416 11.2593 39.7708 11.0476C40.1118 10.836 40.2823 10.4773 40.2823 9.97171ZM46.1731 8.80759L46.1907 9.4602V10.8007C46.1907 12.0589 46.1672 12.7115 46.1202 12.7585C45.9673 12.9114 45.7028 13.029 45.3265 13.1113C44.9502 13.1936 44.6386 13.2348 44.3917 13.2348C44.1565 13.2348 44.0389 13.2171 44.0389 13.1819C44.1212 12.6527 44.1624 11.7826 44.1624 10.5714L44.1094 6.60282C44.1094 5.87377 44.1388 5.47985 44.1976 5.42106C44.327 5.29171 44.5504 5.18 44.8679 5.08593C45.1854 4.9801 45.4793 4.92719 45.7498 4.92719C46.032 4.92719 46.1731 4.95659 46.1731 5.01538C46.1378 5.29759 46.1202 5.5798 46.1202 5.86201C46.1202 6.14422 46.1378 6.28533 46.1731 6.28533L46.226 6.25005C46.2848 6.16774 46.373 6.06779 46.4906 5.9502C46.6082 5.82086 46.8551 5.65623 47.2314 5.45634C47.6194 5.24468 47.984 5.13885 48.325 5.13885C48.6777 5.13885 48.9717 5.20352 49.2069 5.33287C49.4538 5.45045 49.6537 5.59744 49.8066 5.77382C49.9594 5.9502 50.0888 6.20302 50.1946 6.53226C50.3122 6.86151 50.4004 7.16724 50.4592 7.44945C50.518 7.73166 50.565 8.10794 50.6003 8.57829C50.6356 9.22503 50.6532 10.0481 50.6532 11.0476L50.6003 13.1113C50.6003 13.1936 50.4063 13.2701 50.0182 13.3406C49.6302 13.4229 49.3186 13.4641 49.0834 13.4641L48.5013 13.3759C48.6189 12.3176 48.6777 11.2946 48.6777 10.3068C48.6777 9.30734 48.6131 8.56066 48.4837 8.06679C48.3544 7.56116 48.0957 7.30834 47.7076 7.30834C47.3196 7.30834 47.0021 7.41417 46.7552 7.62583C46.52 7.83749 46.3671 8.04915 46.2966 8.26081L46.1731 8.56066V8.80759ZM54.4781 1.22317C54.4546 1.49362 54.4252 2.23443 54.3899 3.44558C55.2718 3.44558 55.7128 3.46322 55.7128 3.4985C55.7128 3.89829 55.654 4.25694 55.5364 4.57443C55.4188 4.88015 55.3071 5.03302 55.2013 5.03302H54.3723C54.3488 6.77332 54.337 8.19025 54.337 9.28382C54.337 10.3656 54.3547 11.0888 54.3899 11.4533C54.4605 12.0648 54.7015 12.5645 55.1131 12.9526C55.1131 13.0819 54.8838 13.2701 54.4252 13.517C53.9784 13.7639 53.5551 13.8874 53.1553 13.8874C53.12 13.8874 53.0494 13.8286 52.9436 13.711C52.8495 13.5934 52.7437 13.3994 52.6261 13.1289C52.5203 12.8585 52.4497 12.5939 52.4145 12.3352C52.3909 12.0765 52.3792 11.1535 52.3792 9.56603C52.3792 7.9786 52.3968 6.47935 52.4321 5.06829L51.4444 5.08593C51.3856 5.02714 51.3562 4.77432 51.3562 4.32749C51.3562 3.8689 51.4091 3.59257 51.5149 3.4985C51.7736 3.48674 52.0852 3.47498 52.4497 3.46322C52.4497 2.78121 52.4321 2.34025 52.3968 2.14035C52.3615 1.94046 52.3439 1.82287 52.3439 1.78759C52.3439 1.67 52.5438 1.53478 52.9436 1.38191C53.3552 1.22905 53.7138 1.15262 54.0195 1.15262C54.3253 1.15262 54.4781 1.17613 54.4781 1.22317ZM56.3022 9.35437L56.2493 3.23392C56.2493 2.09332 56.2787 1.49362 56.3375 1.43483C56.4786 1.29372 56.7079 1.1585 57.0254 1.02915C57.3429 0.899802 57.6486 0.835129 57.9426 0.835129C58.2365 0.835129 58.3835 0.858646 58.3835 0.905681C58.3718 1.01151 58.3482 1.78171 58.313 3.21628C58.2777 4.65086 58.26 5.59156 58.26 6.0384V6.19714C58.26 6.25593 58.2777 6.28533 58.313 6.28533L58.6657 5.93257C58.7951 5.81498 59.0538 5.65623 59.4418 5.45634C59.8416 5.24468 60.212 5.13885 60.553 5.13885C60.9058 5.13885 61.1939 5.19764 61.4173 5.31523C61.6525 5.43282 61.8465 5.57392 61.9993 5.73855C62.1522 5.90317 62.2816 6.14422 62.3874 6.46171C62.4932 6.76744 62.5696 7.05553 62.6167 7.32598C62.6755 7.58468 62.7225 7.94332 62.7578 8.40191C62.7931 9.02513 62.8107 9.81297 62.8107 10.7654L62.7401 13.1113C62.7049 13.2054 62.505 13.2877 62.1404 13.3582C61.7759 13.4288 61.4761 13.4641 61.2409 13.4641L60.6588 13.3759C60.7764 12.3176 60.8352 11.3005 60.8352 10.3245C60.8352 9.34849 60.7647 8.60769 60.6236 8.10206C60.4825 7.59643 60.1944 7.34362 59.7593 7.34362C59.4771 7.34362 59.2125 7.45533 58.9656 7.67875C58.7186 7.90216 58.5481 8.12558 58.4541 8.349L58.2953 8.68412C58.3188 9.49548 58.3306 10.3656 58.3306 11.2946C58.3306 12.2235 58.3012 12.7115 58.2424 12.7585C57.8896 13.076 57.2429 13.2348 56.3022 13.2348C56.2081 13.2348 56.1611 13.2171 56.1611 13.1819C56.2552 12.6645 56.3022 11.3886 56.3022 9.35437ZM70.3683 8.84287C70.3683 10.3127 70.3859 11.1711 70.4212 11.418C70.5153 12.0648 70.7152 12.5292 71.0209 12.8115C71.0209 12.9408 70.7857 13.1348 70.3154 13.3935C69.8568 13.6522 69.4394 13.7816 69.0631 13.7816C68.9572 13.7816 68.8455 13.6228 68.7279 13.3053C68.6104 12.9996 68.5398 12.7703 68.5163 12.6174C68.5045 12.4646 68.4928 12.3881 68.481 12.3881L68.4281 12.4234C67.8049 12.9173 67.0758 13.1642 66.241 13.1642C65.4061 13.1642 64.7593 12.9643 64.3008 12.5645C63.8539 12.153 63.6305 11.6179 63.6305 10.9594C63.6305 10.301 63.7716 9.74829 64.0538 9.30146C64.3478 8.84287 64.6888 8.49598 65.0768 8.26081C65.4649 8.02563 65.8941 7.83749 66.3644 7.69638C67.0817 7.46121 67.6461 7.34362 68.0577 7.34362L68.093 7.32598C68.093 6.7498 67.3639 6.46171 65.9058 6.46171C65.3296 6.46171 64.9005 6.48523 64.6182 6.53226H64.6006C64.6006 6.29709 64.6712 6.00312 64.8123 5.65036C64.9651 5.29759 65.0886 5.06829 65.1827 4.96247C65.2885 4.85664 65.7118 4.80372 66.4526 4.80372C67.7931 4.80372 68.7809 5.06242 69.4158 5.5798C70.0508 6.08543 70.3683 6.87327 70.3683 7.94332V8.84287ZM68.4105 9.97171V9.30146C68.4105 9.04277 68.4046 8.91342 68.3928 8.91342C67.605 8.91342 66.923 9.1192 66.3468 9.53076C65.9823 9.78945 65.8 10.1128 65.8 10.5009C65.8 10.7478 65.8882 10.9536 66.0646 11.1182C66.241 11.2828 66.5055 11.3651 66.8583 11.3651C67.2228 11.3651 67.5697 11.2593 67.899 11.0476C68.24 10.836 68.4105 10.4773 68.4105 9.97171Z" fill="#FF7262"/>
<path d="M77.0421 9.19417C77.5003 9.65229 77.7292 10.2047 77.7292 10.8514C77.7292 11.4982 77.4731 12.0775 76.9612 12.5895C76.4762 13.0746 75.9103 13.3171 75.2636 13.3171C74.6168 13.3171 74.0778 13.1015 73.6467 12.6704C73.2157 12.2123 73 11.6464 73 10.9727C73 10.2721 73.2289 9.69271 73.6872 9.2346C74.1722 8.74955 74.7381 8.50702 75.3848 8.50702C76.0316 8.50702 76.5839 8.73606 77.0421 9.19417Z" fill="#FF7262"/>
</svg>
