<svg width="158" height="47" viewBox="0 0 158 47" fill="none" xmlns="http://www.w3.org/2000/svg">
<path d="M11.9 0.55V12.8C11.9 14.5 11.4083 15.825 10.425 16.775C9.44167 17.7083 8.125 18.175 6.475 18.175C4.80833 18.175 3.45833 17.6917 2.425 16.725C1.40833 15.7583 0.9 14.4083 0.9 12.675H4.4C4.41667 13.425 4.59167 14.0083 4.925 14.425C5.275 14.8417 5.775 15.05 6.425 15.05C7.05833 15.05 7.54167 14.85 7.875 14.45C8.20833 14.05 8.375 13.5 8.375 12.8V0.55H11.9ZM19.4828 3.375V7.75H25.3578V10.525H19.4828V15.15H26.1078V18H15.9828V0.524998H26.1078V3.375H19.4828ZM32.7885 3.375V7.75H38.6635V10.525H32.7885V15.15H39.4135V18H29.2885V0.524998H39.4135V3.375H32.7885ZM65.9191 0.55L61.0441 18H56.9191L53.6441 5.575L50.2191 18L46.1191 18.025L41.4191 0.55H45.1691L48.2441 14.1L51.7941 0.55H55.6941L59.0441 14.025L62.1441 0.55H65.9191ZM78.9045 14.675H71.9545L70.8045 18H67.1295L73.4045 0.524998H77.4795L83.7545 18H80.0545L78.9045 14.675ZM77.9545 11.875L75.4295 4.575L72.9045 11.875H77.9545ZM101.025 18H97.525L89.6 6.025V18H86.1V0.524998H89.6L97.525 12.525V0.524998H101.025V18ZM116.359 0.55V3.375H111.709V18H108.209V3.375H103.559V0.55H116.359ZM133.388 0.55V18H129.888V10.575H122.413V18H118.913V0.55H122.413V7.725H129.888V0.55H133.388ZM147.532 14.675H140.582L139.432 18H135.757L142.032 0.524998H146.107L152.382 18H148.682L147.532 14.675ZM146.582 11.875L144.057 4.575L141.532 11.875H146.582Z" fill="#FF7262"/>
<path d="M13.5625 44.2188C13.3958 44.5104 13.1354 44.7083 12.7812 44.8125C12.4479 44.9167 12.1354 44.8646 11.8438 44.6562C11.2812 44.2396 10.7396 43.8125 10.2188 43.375C9.69792 42.9167 9.13542 42.5104 8.53125 42.1562C7.98958 41.8229 7.44792 41.5208 6.90625 41.25C6.36458 40.9583 5.84375 40.625 5.34375 40.25C4.73958 39.7917 4.17708 39.2917 3.65625 38.75C3.63542 39.7917 3.64583 40.8333 3.6875 41.875C3.72917 42.8958 3.79167 43.9271 3.875 44.9688C3.91667 45.3229 3.80208 45.6146 3.53125 45.8438C3.26042 46.0938 2.96875 46.2188 2.65625 46.2188C2.28125 46.2188 1.98958 46.0938 1.78125 45.8438C1.57292 45.6146 1.44792 45.3229 1.40625 44.9688C1.28125 43.4688 1.20833 42 1.1875 40.5625C1.16667 39.1042 1.19792 37.6354 1.28125 36.1562C1.11458 35.9271 0.947917 35.6979 0.78125 35.4688C0.614583 35.2188 0.458333 34.9688 0.3125 34.7188C0.1875 34.4688 0.135417 34.2292 0.15625 34C0.197917 33.7708 0.28125 33.5729 0.40625 33.4062C0.552083 33.2396 0.71875 33.1042 0.90625 33C1.11458 32.8958 1.33333 32.8542 1.5625 32.875C1.60417 32.3958 1.65625 31.9167 1.71875 31.4375C1.78125 30.9375 1.84375 30.4479 1.90625 29.9688C1.96875 29.6354 2.02083 29.3125 2.0625 29C2.125 28.6667 2.17708 28.3333 2.21875 28C2.26042 27.8333 2.28125 27.6771 2.28125 27.5312C2.30208 27.3854 2.33333 27.2292 2.375 27.0625C2.375 26.9792 2.39583 26.875 2.4375 26.75C2.45833 26.4792 2.46875 26.2188 2.46875 25.9688C2.46875 25.6979 2.47917 25.4271 2.5 25.1562C2.52083 24.8229 2.55208 24.4688 2.59375 24.0938C2.65625 23.6979 2.73958 23.3229 2.84375 22.9688C2.96875 22.5938 3.13542 22.25 3.34375 21.9375C3.55208 21.625 3.83333 21.3854 4.1875 21.2188C4.52083 21.0729 4.85417 20.9896 5.1875 20.9688C5.54167 20.9479 5.88542 20.9688 6.21875 21.0312C6.57292 21.0938 6.91667 21.1875 7.25 21.3125C7.58333 21.4167 7.90625 21.5312 8.21875 21.6562C8.94792 21.9271 9.66667 22.2396 10.375 22.5938C11.1042 22.9271 11.75 23.3646 12.3125 23.9062C12.8542 24.4479 13.3229 25.0938 13.7188 25.8438C14.1146 26.5729 14.2917 27.3333 14.25 28.125C14.2083 28.6042 14.1042 29.0312 13.9375 29.4062C13.7917 29.7604 13.5833 30.125 13.3125 30.5C12.6458 31.4375 11.9271 32.3333 11.1562 33.1875C10.3854 34.0417 9.5625 34.8229 8.6875 35.5312C8.27083 35.8646 7.8125 36.1979 7.3125 36.5312C6.83333 36.8646 6.32292 37.1458 5.78125 37.375C5.96875 37.5417 6.15625 37.7083 6.34375 37.875C6.53125 38.0417 6.72917 38.1875 6.9375 38.3125C7.47917 38.6667 8.02083 39 8.5625 39.3125C9.125 39.6042 9.66667 39.9271 10.1875 40.2812C10.6875 40.6354 11.1771 41.0104 11.6562 41.4062C12.1354 41.8021 12.6146 42.1771 13.0938 42.5312C13.3854 42.7188 13.5729 42.9688 13.6562 43.2812C13.7604 43.5938 13.7292 43.9062 13.5625 44.2188ZM5.125 34.9375C5.625 34.6667 6.07292 34.3854 6.46875 34.0938C6.88542 33.7812 7.29167 33.4479 7.6875 33.0938C8.10417 32.7188 8.51042 32.3229 8.90625 31.9062C9.30208 31.4896 9.6875 31.0729 10.0625 30.6562C10.2083 30.4688 10.3438 30.3021 10.4688 30.1562C10.5938 30.0104 10.7083 29.875 10.8125 29.75C10.9167 29.6042 11.0208 29.4583 11.125 29.3125C11.25 29.1458 11.375 28.9583 11.5 28.75C11.5417 28.6875 11.5833 28.625 11.625 28.5625C11.6667 28.5 11.7083 28.4375 11.75 28.375C11.7708 27.7917 11.6458 27.25 11.375 26.75C11.0208 26.1458 10.5729 25.6562 10.0312 25.2812C9.51042 24.9062 8.92708 24.5938 8.28125 24.3438C7.90625 24.1771 7.53125 24.0312 7.15625 23.9062C6.78125 23.7812 6.38542 23.6667 5.96875 23.5625C5.86458 23.5208 5.70833 23.4792 5.5 23.4375C5.375 23.4792 5.29167 23.5417 5.25 23.625C5.16667 23.8958 5.125 24.0833 5.125 24.1875C5.10417 24.25 5.07292 24.3646 5.03125 24.5312C5.01042 24.7396 4.98958 24.9062 4.96875 25.0312C4.96875 25.1354 4.96875 25.25 4.96875 25.375C4.90625 26.8125 4.75 28.2292 4.5 29.625C4.27083 31.0208 4.08333 32.4375 3.9375 33.875C3.89583 34.1042 3.86458 34.3438 3.84375 34.5938C3.84375 34.8229 3.83333 35.0521 3.8125 35.2812C4 35.3021 4.10417 35.3021 4.125 35.2812C4.35417 35.2396 4.53125 35.1979 4.65625 35.1562C4.80208 35.0938 4.95833 35.0208 5.125 34.9375ZM22.1675 44.5938C22.1675 44.9896 22.0321 45.2812 21.7612 45.4688C21.5112 45.6771 21.23 45.7812 20.9175 45.7812C20.605 45.7812 20.3237 45.6771 20.0737 45.4688C19.8237 45.2812 19.6987 44.9896 19.6987 44.5938C19.6987 42.9688 19.8862 41.4062 20.2612 39.9062C20.6362 38.4062 21.105 36.9167 21.6675 35.4375C21.5217 35.1667 21.48 34.8646 21.5425 34.5312C21.6675 34.0938 21.9383 33.8229 22.355 33.7188C22.7717 32.7188 23.1987 31.7292 23.6362 30.75C24.0946 29.75 24.5321 28.75 24.9487 27.75C25.3654 26.75 25.7508 25.7396 26.105 24.7188C26.4592 23.6979 26.7508 22.6562 26.98 21.5938C27.0425 21.2812 27.1675 21.0104 27.355 20.7812C27.5633 20.5521 27.8446 20.4375 28.1987 20.4375C28.5321 20.4375 28.8342 20.5625 29.105 20.8125C29.3758 21.0417 29.4904 21.3333 29.4487 21.6875C29.3862 22.8958 29.4071 24.0104 29.5112 25.0312C29.6154 26.0312 29.7717 27.0312 29.98 28.0312C30.1883 29.0104 30.4175 30 30.6675 31C30.9383 31.9792 31.1883 32.9583 31.4175 33.9375C31.6467 34.875 31.855 35.8125 32.0425 36.75C32.23 37.6875 32.5321 38.5938 32.9487 39.4688C33.1571 39.9062 33.3758 40.3333 33.605 40.75C33.8342 41.1458 34.0842 41.5521 34.355 41.9688C34.605 42.3438 34.8342 42.7396 35.0425 43.1562C35.2508 43.5521 35.3967 43.9896 35.48 44.4688C35.5217 44.8021 35.4696 45.1146 35.3237 45.4062C35.1987 45.6979 34.9592 45.8958 34.605 46C34.3133 46.0833 34.0008 46.0417 33.6675 45.875C33.3342 45.7083 33.1362 45.4583 33.0737 45.125C32.9904 44.6458 32.8237 44.2188 32.5737 43.8438C32.3446 43.4688 32.105 43.0833 31.855 42.6875C31.5633 42.2292 31.2925 41.7708 31.0425 41.3125C30.8133 40.8333 30.605 40.3438 30.4175 39.8438C30.2092 39.3229 30.0321 38.8021 29.8862 38.2812C29.7404 37.7396 29.605 37.1979 29.48 36.6562C28.5425 36.5938 27.6154 36.5521 26.6987 36.5312C25.8029 36.4896 24.8967 36.4167 23.98 36.3125C23.48 37.6458 23.0529 39 22.6987 40.375C22.3654 41.75 22.1883 43.1562 22.1675 44.5938ZM25.105 33.5312C25.0633 33.5938 25.0321 33.6667 25.0112 33.75C25.0112 33.8125 24.9904 33.875 24.9487 33.9375C25.6154 34 26.2717 34.0417 26.9175 34.0625C27.5633 34.0625 28.2196 34.0833 28.8862 34.125C28.6571 33.125 28.4071 32.1354 28.1362 31.1562C27.8862 30.1562 27.6571 29.1458 27.4487 28.125C27.0737 29.0417 26.6883 29.9479 26.2925 30.8438C25.8967 31.7188 25.5008 32.6146 25.105 33.5312ZM46.335 36.4375C45.835 35.9167 45.3037 35.4375 44.7412 35C44.1787 34.5417 43.6162 34.0938 43.0537 33.6562C42.5121 33.1979 41.9808 32.7292 41.46 32.25C40.9392 31.75 40.46 31.2083 40.0225 30.625C39.5642 30.0208 39.1996 29.3646 38.9287 28.6562C38.6787 27.9271 38.6371 27.1771 38.8037 26.4062C38.9704 25.5729 39.3767 24.8438 40.0225 24.2188C40.6683 23.5938 41.3662 23.1042 42.1162 22.75C42.9287 22.3958 43.7517 22.1562 44.585 22.0312C45.4183 21.8854 46.2621 21.8021 47.1162 21.7812C47.9704 21.7396 48.8246 21.7396 49.6787 21.7812C50.5537 21.8021 51.4183 21.7917 52.2725 21.75C52.6683 21.7292 52.96 21.8438 53.1475 22.0938C53.3558 22.3438 53.46 22.625 53.46 22.9375C53.46 23.25 53.3558 23.5417 53.1475 23.8125C52.96 24.0625 52.6683 24.1979 52.2725 24.2188C51.6683 24.2604 51.0642 24.2812 50.46 24.2812C49.8767 24.2604 49.2829 24.2396 48.6787 24.2188C47.8662 24.1979 47.0433 24.2083 46.21 24.25C45.3975 24.2917 44.5954 24.4583 43.8037 24.75C43.5329 24.8542 43.2412 24.9896 42.9287 25.1562C42.6162 25.3021 42.3246 25.4896 42.0537 25.7188C41.8037 25.9479 41.5954 26.1979 41.4287 26.4688C41.2621 26.7396 41.1892 27.0312 41.21 27.3438C41.2308 27.6354 41.3037 27.9271 41.4287 28.2188C41.5537 28.4896 41.71 28.7604 41.8975 29.0312C42.1058 29.3021 42.3246 29.5625 42.5537 29.8125C42.7829 30.0625 43.0017 30.2917 43.21 30.5C43.6892 30.9792 44.1892 31.4167 44.71 31.8125C45.2308 32.2083 45.7517 32.6146 46.2725 33.0312C46.8142 33.4688 47.3558 33.9583 47.8975 34.5C48.46 35.0208 48.9392 35.5938 49.335 36.2188C49.7517 36.8229 50.0537 37.4688 50.2412 38.1562C50.4496 38.8438 50.4808 39.5729 50.335 40.3438C50.1892 41.0729 49.9079 41.6979 49.4912 42.2188C49.0954 42.7188 48.6162 43.1771 48.0537 43.5938C47.5121 43.9896 46.9287 44.3542 46.3037 44.6875C45.6996 45 45.1162 45.3229 44.5537 45.6562C44.1996 45.8646 43.8662 45.9062 43.5537 45.7812C43.2621 45.6562 43.0329 45.4583 42.8662 45.1875C42.7204 44.9167 42.6579 44.625 42.6787 44.3125C42.7204 43.9792 42.9183 43.7083 43.2725 43.5C43.7725 43.2083 44.2725 42.9375 44.7725 42.6875C45.2725 42.4375 45.7621 42.1562 46.2412 41.8438C46.6996 41.5521 47.0954 41.2083 47.4287 40.8125C47.7829 40.3958 47.96 39.9167 47.96 39.375C47.9392 38.8333 47.7621 38.3125 47.4287 37.8125C47.1162 37.3125 46.7517 36.8542 46.335 36.4375ZM58.2525 34.3438C58.2733 32.5729 58.2525 30.8229 58.19 29.0938C58.1483 27.3438 57.9192 25.6042 57.5025 23.875C57.3983 23.4792 57.4504 23.1562 57.6587 22.9062C57.8671 22.6354 58.1171 22.4583 58.4087 22.375C58.7212 22.2917 59.0233 22.3125 59.315 22.4375C59.6067 22.5625 59.8046 22.8229 59.9087 23.2188C60.3462 24.9896 60.5858 26.7812 60.6275 28.5938C60.6692 30.3854 60.6796 32.1979 60.6587 34.0312C61.3046 34.0938 61.9504 34.1667 62.5962 34.25C63.2421 34.3125 63.8879 34.3646 64.5337 34.4062C65.1796 34.4271 65.815 34.4271 66.44 34.4062C67.0858 34.3646 67.7212 34.2604 68.3462 34.0938C68.5129 34.0312 68.69 34.0208 68.8775 34.0625C68.94 33.125 69.0233 32.2083 69.1275 31.3125C69.2317 30.3958 69.2942 29.4688 69.315 28.5312C69.3567 27.5312 69.3358 26.5417 69.2525 25.5625C69.1692 24.5833 69.0754 23.5938 68.9712 22.5938C68.9296 22.2604 69.0442 21.9688 69.315 21.7188C69.5858 21.4688 69.8879 21.3438 70.2212 21.3438C70.5754 21.3438 70.8567 21.4688 71.065 21.7188C71.2733 21.9688 71.3983 22.2604 71.44 22.5938C71.5442 23.5938 71.6379 24.5833 71.7212 25.5625C71.8254 26.5417 71.8567 27.5312 71.815 28.5312C71.7733 29.5312 71.69 30.5104 71.565 31.4688C71.4608 32.4062 71.3879 33.375 71.3462 34.375C71.2421 36 71.1692 37.6354 71.1275 39.2812C71.0858 40.9062 71.1171 42.5312 71.2212 44.1562C71.2421 44.5729 71.1275 44.875 70.8775 45.0625C70.6275 45.2708 70.3462 45.375 70.0337 45.375C69.7212 45.375 69.4296 45.2708 69.1587 45.0625C68.8879 44.875 68.7421 44.5729 68.7212 44.1562C68.6379 42.9062 68.5962 41.6458 68.5962 40.375C68.6171 39.1042 68.6587 37.8333 68.7212 36.5625C68.0546 36.7292 67.3879 36.8333 66.7212 36.875C66.0546 36.8958 65.3879 36.8958 64.7212 36.875C64.0546 36.8333 63.3775 36.7812 62.69 36.7188C62.0233 36.6354 61.3567 36.5625 60.69 36.5C60.7108 37.6667 60.7629 38.8229 60.8462 39.9688C60.9504 41.1146 61.1483 42.2604 61.44 43.4062C61.5442 43.8021 61.4921 44.1354 61.2837 44.4062C61.0962 44.6562 60.8462 44.8229 60.5337 44.9062C60.2421 44.9896 59.94 44.9688 59.6275 44.8438C59.3358 44.7188 59.1483 44.4583 59.065 44.0625C58.7108 42.7292 58.4921 41.3958 58.4087 40.0625C58.3254 38.7083 58.2733 37.3438 58.2525 35.9688C58.0858 35.7396 58.0025 35.4688 58.0025 35.1562C58.0025 34.8438 58.0858 34.5729 58.2525 34.3438ZM82.3262 44.375C82.3262 44.7708 82.1908 45.0625 81.92 45.25C81.67 45.4583 81.3887 45.5625 81.0762 45.5625C80.7637 45.5625 80.4721 45.4583 80.2012 45.25C79.9512 45.0625 79.8262 44.7708 79.8262 44.375C79.8262 41.0417 79.8679 37.7292 79.9512 34.4375C80.0346 31.125 80.2325 27.8125 80.545 24.5C80.5867 24.1458 80.7117 23.8646 80.92 23.6562C81.1492 23.4479 81.3887 23.3333 81.6387 23.3125C81.9096 23.2708 82.17 23.3229 82.42 23.4688C82.6908 23.5938 82.8887 23.8229 83.0137 24.1562C83.4304 25.3438 83.8158 26.5417 84.17 27.75C84.5242 28.9375 84.8679 30.1354 85.2012 31.3438C85.5554 32.5521 85.9096 33.7604 86.2637 34.9688C86.6387 36.1562 87.045 37.3333 87.4825 38.5C88.5658 35.7708 89.545 33.0312 90.42 30.2812C91.3158 27.5312 92.0346 24.7083 92.5762 21.8125C92.6387 21.5 92.7846 21.2708 93.0137 21.125C93.2429 20.9792 93.4929 20.9062 93.7637 20.9062C94.0554 20.9062 94.3158 20.9792 94.545 21.125C94.7742 21.2708 94.92 21.5 94.9825 21.8125C95.1492 22.75 95.2012 23.6771 95.1387 24.5938C95.0971 25.4896 95.0762 26.4062 95.0762 27.3438C95.0762 28.3438 95.1283 29.3229 95.2325 30.2812C95.3575 31.2396 95.4617 32.2083 95.545 33.1875C95.7117 35.1458 95.8367 37.1042 95.92 39.0625C96.0033 41.0208 96.0762 42.9792 96.1387 44.9375C96.1387 45.3542 96.0137 45.6562 95.7637 45.8438C95.5137 46.0521 95.2325 46.1562 94.92 46.1562C94.6075 46.1562 94.3158 46.0521 94.045 45.8438C93.7742 45.6562 93.6387 45.3542 93.6387 44.9375C93.5971 42.9792 93.5242 41.0208 93.42 39.0625C93.3367 37.1042 93.2117 35.1458 93.045 33.1875C93.0033 32.8333 92.9617 32.4688 92.92 32.0938C92.8992 31.7188 92.8679 31.3542 92.8262 31C92.2221 32.8958 91.5658 34.7604 90.8575 36.5938C90.17 38.4271 89.4512 40.2604 88.7012 42.0938C88.5971 42.3438 88.4408 42.5625 88.2325 42.75C88.045 42.9167 87.8054 43 87.5137 43C87.3054 43 87.0971 42.9479 86.8887 42.8438C86.6804 42.7188 86.5242 42.5625 86.42 42.375C85.5867 40.5417 84.8783 38.6771 84.295 36.7812C83.7117 34.8854 83.1387 32.9688 82.5762 31.0312C82.4721 33.2604 82.3992 35.4896 82.3575 37.7188C82.3367 39.9271 82.3262 42.1458 82.3262 44.375ZM103.244 45C102.869 44.8958 102.619 44.6875 102.494 44.375C102.369 44.0625 102.348 43.7604 102.431 43.4688C102.515 43.1771 102.681 42.9375 102.931 42.75C103.202 42.5417 103.525 42.4896 103.9 42.5938C104.733 42.8438 105.567 43 106.4 43.0625C107.233 43.125 108.088 43.1354 108.963 43.0938C108.608 41.6146 108.431 40.1354 108.431 38.6562C108.431 37.1562 108.483 35.6667 108.588 34.1875C108.713 32.6875 108.827 31.1875 108.931 29.6875C109.056 28.1875 109.067 26.6875 108.963 25.1875C108.171 25.1667 107.369 25.1354 106.556 25.0938C105.765 25.0312 104.973 24.9479 104.181 24.8438C103.827 24.8021 103.525 24.6771 103.275 24.4688C103.046 24.2604 102.931 23.9792 102.931 23.625C102.931 23.3125 103.046 23.0208 103.275 22.75C103.525 22.4583 103.827 22.3333 104.181 22.375C105.14 22.4792 106.098 22.5729 107.056 22.6562C108.035 22.7188 109.004 22.7396 109.963 22.7188C110.921 22.6979 111.869 22.6146 112.806 22.4688C113.765 22.3229 114.713 22.0833 115.65 21.75C115.963 21.6458 116.265 21.6875 116.556 21.875C116.869 22.0625 117.077 22.3125 117.181 22.625C117.285 22.9792 117.244 23.3021 117.056 23.5938C116.89 23.8646 116.64 24.0521 116.306 24.1562C114.744 24.6979 113.119 25.0208 111.431 25.125C111.556 26.6042 111.556 28.0938 111.431 29.5938C111.306 31.0938 111.181 32.5833 111.056 34.0625C110.931 35.5417 110.869 37.0208 110.869 38.5C110.89 39.9792 111.088 41.4479 111.463 42.9062C112.129 42.8438 112.785 42.7812 113.431 42.7188C114.077 42.6562 114.723 42.6042 115.369 42.5625C115.765 42.5417 116.056 42.6562 116.244 42.9062C116.452 43.1354 116.556 43.4062 116.556 43.7188C116.556 44.0312 116.452 44.3229 116.244 44.5938C116.056 44.8646 115.765 45.0104 115.369 45.0312C114.348 45.0938 113.327 45.1771 112.306 45.2812C111.306 45.4062 110.296 45.4896 109.275 45.5312C108.275 45.5938 107.265 45.5938 106.244 45.5312C105.244 45.4688 104.244 45.2917 103.244 45ZM123.067 34.375C122.984 32.625 122.849 30.8958 122.661 29.1875C122.474 27.4583 122.265 25.7292 122.036 24C121.995 23.6458 122.036 23.3333 122.161 23.0625C122.307 22.7708 122.557 22.5729 122.911 22.4688C123.203 22.3854 123.515 22.4271 123.849 22.5938C124.203 22.7396 124.401 22.9896 124.442 23.3438C124.672 25.0312 124.88 26.7083 125.067 28.375C125.255 30.0417 125.401 31.7292 125.505 33.4375C125.692 33.375 125.859 33.3542 126.005 33.375C126.88 33.0625 127.734 32.6979 128.567 32.2812C129.401 31.8438 130.172 31.3333 130.88 30.75C131.401 30.3125 131.849 29.8438 132.224 29.3438C132.62 28.8438 132.974 28.2917 133.286 27.6875C133.578 27.0833 133.88 26.4896 134.192 25.9062C134.526 25.3021 134.922 24.75 135.38 24.25C135.651 23.9583 135.942 23.8333 136.255 23.875C136.588 23.8958 136.859 24.0208 137.067 24.25C137.297 24.4583 137.432 24.7292 137.474 25.0625C137.536 25.3958 137.432 25.7083 137.161 26C136.682 26.5417 136.297 27.1354 136.005 27.7812C135.713 28.4271 135.39 29.0521 135.036 29.6562C134.349 30.8229 133.453 31.8542 132.349 32.75C131.786 33.1875 131.203 33.5938 130.599 33.9688C129.995 34.3229 129.37 34.6458 128.724 34.9375C129.161 35.1875 129.578 35.4688 129.974 35.7812C130.39 36.0729 130.765 36.4271 131.099 36.8438C131.474 37.3229 131.828 37.8229 132.161 38.3438C132.495 38.8438 132.87 39.3333 133.286 39.8125C133.682 40.2292 134.088 40.6354 134.505 41.0312C134.922 41.4062 135.338 41.7917 135.755 42.1875C136.047 42.4583 136.172 42.7604 136.13 43.0938C136.088 43.4062 135.953 43.6771 135.724 43.9062C135.515 44.1146 135.245 44.25 134.911 44.3125C134.578 44.3542 134.265 44.2396 133.974 43.9688C133.557 43.5729 133.14 43.1771 132.724 42.7812C132.307 42.3854 131.911 41.9792 131.536 41.5625C131.12 41.1042 130.745 40.6354 130.411 40.1562C130.078 39.6562 129.734 39.1667 129.38 38.6875C128.922 38.0625 128.37 37.5729 127.724 37.2188C127.078 36.8438 126.432 36.4583 125.786 36.0625C125.661 36.625 125.599 37.1562 125.599 37.6562C125.599 38.1562 125.588 38.6562 125.567 39.1562C125.547 40.0312 125.526 40.8958 125.505 41.75C125.505 42.6042 125.578 43.4688 125.724 44.3438C125.765 44.6771 125.713 44.9896 125.567 45.2812C125.442 45.5729 125.203 45.7708 124.849 45.875C124.557 45.9583 124.245 45.9167 123.911 45.75C123.578 45.5833 123.38 45.3333 123.317 45C123.067 43.5 122.963 41.9896 123.005 40.4688C123.067 38.9271 123.099 37.3958 123.099 35.875C122.87 35.4792 122.859 35.0729 123.067 34.6562V34.375ZM144.61 44.5938C144.61 44.9896 144.475 45.2812 144.204 45.4688C143.954 45.6771 143.673 45.7812 143.36 45.7812C143.048 45.7812 142.766 45.6771 142.516 45.4688C142.266 45.2812 142.141 44.9896 142.141 44.5938C142.141 42.9688 142.329 41.4062 142.704 39.9062C143.079 38.4062 143.548 36.9167 144.11 35.4375C143.964 35.1667 143.923 34.8646 143.985 34.5312C144.11 34.0938 144.381 33.8229 144.798 33.7188C145.214 32.7188 145.641 31.7292 146.079 30.75C146.537 29.75 146.975 28.75 147.391 27.75C147.808 26.75 148.193 25.7396 148.548 24.7188C148.902 23.6979 149.193 22.6562 149.423 21.5938C149.485 21.2812 149.61 21.0104 149.798 20.7812C150.006 20.5521 150.287 20.4375 150.641 20.4375C150.975 20.4375 151.277 20.5625 151.548 20.8125C151.818 21.0417 151.933 21.3333 151.891 21.6875C151.829 22.8958 151.85 24.0104 151.954 25.0312C152.058 26.0312 152.214 27.0312 152.423 28.0312C152.631 29.0104 152.86 30 153.11 31C153.381 31.9792 153.631 32.9583 153.86 33.9375C154.089 34.875 154.298 35.8125 154.485 36.75C154.673 37.6875 154.975 38.5938 155.391 39.4688C155.6 39.9062 155.818 40.3333 156.048 40.75C156.277 41.1458 156.527 41.5521 156.798 41.9688C157.048 42.3438 157.277 42.7396 157.485 43.1562C157.693 43.5521 157.839 43.9896 157.923 44.4688C157.964 44.8021 157.912 45.1146 157.766 45.4062C157.641 45.6979 157.402 45.8958 157.048 46C156.756 46.0833 156.443 46.0417 156.11 45.875C155.777 45.7083 155.579 45.4583 155.516 45.125C155.433 44.6458 155.266 44.2188 155.016 43.8438C154.787 43.4688 154.548 43.0833 154.298 42.6875C154.006 42.2292 153.735 41.7708 153.485 41.3125C153.256 40.8333 153.048 40.3438 152.86 39.8438C152.652 39.3229 152.475 38.8021 152.329 38.2812C152.183 37.7396 152.048 37.1979 151.923 36.6562C150.985 36.5938 150.058 36.5521 149.141 36.5312C148.245 36.4896 147.339 36.4167 146.423 36.3125C145.923 37.6458 145.495 39 145.141 40.375C144.808 41.75 144.631 43.1562 144.61 44.5938ZM147.548 33.5312C147.506 33.5938 147.475 33.6667 147.454 33.75C147.454 33.8125 147.433 33.875 147.391 33.9375C148.058 34 148.714 34.0417 149.36 34.0625C150.006 34.0625 150.662 34.0833 151.329 34.125C151.1 33.125 150.85 32.1354 150.579 31.1562C150.329 30.1562 150.1 29.1458 149.891 28.125C149.516 29.0417 149.131 29.9479 148.735 30.8438C148.339 31.7188 147.943 32.6146 147.548 33.5312Z" fill="#2D2D2D"/>
</svg>
