<svg width="280" height="61" viewBox="0 0 280 61" fill="none" xmlns="http://www.w3.org/2000/svg">
<rect width="61" height="61" rx="9" fill="#FF7262"/>
<path d="M89.232 5.664V21.344C89.232 23.52 88.6027 25.216 87.344 26.432C86.0853 27.6267 84.4 28.224 82.288 28.224C80.1547 28.224 78.4267 27.6053 77.104 26.368C75.8027 25.1307 75.152 23.4027 75.152 21.184H79.632C79.6533 22.144 79.8773 22.8907 80.304 23.424C80.752 23.9573 81.392 24.224 82.224 24.224C83.0347 24.224 83.6533 23.968 84.08 23.456C84.5067 22.944 84.72 22.24 84.72 21.344V5.664H89.232ZM98.938 9.28V14.88H106.458V18.432H98.938V24.352H107.418V28H94.458V5.632H107.418V9.28H98.938ZM115.969 9.28V14.88H123.489V18.432H115.969V24.352H124.449V28H111.489V5.632H124.449V9.28H115.969ZM158.377 5.664L152.137 28H146.857L142.665 12.096L138.281 28L133.033 28.032L127.017 5.664H131.817L135.753 23.008L140.297 5.664H145.289L149.577 22.912L153.545 5.664H158.377ZM174.998 23.744H166.102L164.63 28H159.926L167.958 5.632H173.174L181.206 28H176.47L174.998 23.744ZM173.782 20.16L170.55 10.816L167.318 20.16H173.782ZM203.312 28H198.832L188.688 12.672V28H184.208V5.632H188.688L198.832 20.992V5.632H203.312V28ZM222.939 5.664V9.28H216.987V28H212.507V9.28H206.555V5.664H222.939ZM244.736 5.664V28H240.256V18.496H230.688V28H226.208V5.664H230.688V14.848H240.256V5.664H244.736ZM262.842 23.744H253.946L252.474 28H247.77L255.802 5.632H261.018L269.05 28H264.314L262.842 23.744ZM261.626 20.16L258.394 10.816L255.161 20.16H261.626ZM87.728 56L82.8 47.296H80.688V56H76.208V33.664H84.592C86.32 33.664 87.792 33.9733 89.008 34.592C90.224 35.1893 91.1307 36.0107 91.728 37.056C92.3467 38.08 92.656 39.232 92.656 40.512C92.656 41.984 92.2293 43.3173 91.376 44.512C90.5227 45.6853 89.2533 46.496 87.568 46.944L92.912 56H87.728ZM80.688 43.936H84.432C85.648 43.936 86.5547 43.648 87.152 43.072C87.7493 42.4747 88.048 41.6533 88.048 40.608C88.048 39.584 87.7493 38.7947 87.152 38.24C86.5547 37.664 85.648 37.376 84.432 37.376H80.688V43.936ZM114.884 51.744H105.988L104.516 56H99.812L107.844 33.632H113.06L121.092 56H116.356L114.884 51.744ZM113.668 48.16L110.436 38.816L107.204 48.16H113.668ZM136.286 56.224C134.729 56.224 133.321 55.9573 132.062 55.424C130.825 54.8907 129.844 54.1227 129.118 53.12C128.393 52.1173 128.02 50.9333 127.998 49.568H132.798C132.862 50.4853 133.182 51.2107 133.758 51.744C134.356 52.2773 135.166 52.544 136.19 52.544C137.236 52.544 138.057 52.2987 138.654 51.808C139.252 51.296 139.55 50.6347 139.55 49.824C139.55 49.1627 139.348 48.6187 138.942 48.192C138.537 47.7653 138.025 47.4347 137.406 47.2C136.809 46.944 135.977 46.6667 134.91 46.368C133.46 45.9413 132.276 45.5253 131.358 45.12C130.462 44.6933 129.684 44.064 129.022 43.232C128.382 42.3787 128.062 41.248 128.062 39.84C128.062 38.5173 128.393 37.3653 129.054 36.384C129.716 35.4027 130.644 34.656 131.838 34.144C133.033 33.6107 134.398 33.344 135.934 33.344C138.238 33.344 140.105 33.9093 141.534 35.04C142.985 36.1493 143.785 37.7067 143.934 39.712H139.006C138.964 38.944 138.633 38.3147 138.014 37.824C137.417 37.312 136.617 37.056 135.614 37.056C134.74 37.056 134.036 37.28 133.502 37.728C132.99 38.176 132.734 38.8267 132.734 39.68C132.734 40.2773 132.926 40.7787 133.31 41.184C133.716 41.568 134.206 41.888 134.782 42.144C135.38 42.3787 136.212 42.656 137.278 42.976C138.729 43.4027 139.913 43.8293 140.83 44.256C141.748 44.6827 142.537 45.3227 143.198 46.176C143.86 47.0293 144.19 48.1493 144.19 49.536C144.19 50.7307 143.881 51.84 143.262 52.864C142.644 53.888 141.737 54.7093 140.542 55.328C139.348 55.9253 137.929 56.224 136.286 56.224ZM171.082 33.664V56H166.602V46.496H157.034V56H152.554V33.664H157.034V42.848H166.602V33.664H171.082ZM204.324 33.664V56H199.844V41.472L193.86 56H190.468L184.452 41.472V56H179.972V33.664H185.06L192.164 50.272L199.268 33.664H204.324ZM217.713 33.664V56H213.233V33.664H217.713ZM239.227 56L231.099 46.048V56H226.619V33.664H231.099V43.68L239.227 33.664H244.635L235.419 44.736L244.891 56H239.227ZM266.014 51.744H257.118L255.646 56H250.942L258.974 33.632H264.19L272.222 56H267.486L266.014 51.744ZM264.798 48.16L261.566 38.816L258.334 48.16H264.798Z" fill="#231F20"/>
<path d="M52.4427 23.7251H59C58.5952 33.0011 52.2484 51.8411 30.0992 52.9926C16.9845 53.2325 5.08417 47.7148 6.05563 27.8033C7.02709 7.89182 32.5278 5.97261 37.8708 9.33118C44.5919 13.556 47.0997 18.6872 44.9139 29.0028C42.7281 39.3184 29.6134 40.9977 24.2704 38.8386C18.9274 36.6795 15.5273 27.5634 23.5418 21.8059C26.4562 19.8867 29.1277 19.8867 32.5278 20.3665C32.3335 20.7503 32.4469 24.8446 32.5278 26.8437C30.342 26.8437 26.0191 27.6114 26.2133 30.6821C26.4562 34.5205 32.1184 33.4761 33.7421 32.6013C36.4136 31.1619 41.1656 27.8481 38.1137 19.4069C35.6851 12.6897 21.8418 14.369 18.4417 17.7276C15.3841 20.7478 9.45573 29.0028 16.2559 39.5583C23.0561 50.1138 41.0823 45.3983 46.8568 38.8386C51.7141 33.3209 52.4427 26.5239 52.4427 23.7251Z" fill="white"/>
</svg>
