<svg width="142" height="142" viewBox="0 0 142 142" fill="none" xmlns="http://www.w3.org/2000/svg">
<g clip-path="url(#clip0_63_1286)">
<path d="M81.13 130.82C83.6705 130.82 85.73 128.76 85.73 126.22C85.73 123.679 83.6705 121.62 81.13 121.62C78.5895 121.62 76.53 123.679 76.53 126.22C76.53 128.76 78.5895 130.82 81.13 130.82Z" fill="#2D2D2D"/>
<path d="M0.120019 130.82C2.66053 130.82 4.72002 128.76 4.72002 126.22C4.72002 123.679 2.66053 121.62 0.120019 121.62C-2.42049 121.62 -4.47998 123.679 -4.47998 126.22C-4.47998 128.76 -2.42049 130.82 0.120019 130.82Z" fill="#2D2D2D"/>
<path d="M101.38 130.82C103.921 130.82 105.98 128.76 105.98 126.22C105.98 123.679 103.921 121.62 101.38 121.62C98.8395 121.62 96.78 123.679 96.78 126.22C96.78 128.76 98.8395 130.82 101.38 130.82Z" fill="#2D2D2D"/>
<path d="M20.37 130.82C22.9105 130.82 24.97 128.76 24.97 126.22C24.97 123.679 22.9105 121.62 20.37 121.62C17.8295 121.62 15.77 123.679 15.77 126.22C15.77 128.76 17.8295 130.82 20.37 130.82Z" fill="#2D2D2D"/>
<path d="M121.63 130.82C124.171 130.82 126.23 128.76 126.23 126.22C126.23 123.679 124.171 121.62 121.63 121.62C119.09 121.62 117.03 123.679 117.03 126.22C117.03 128.76 119.09 130.82 121.63 130.82Z" fill="#2D2D2D"/>
<path d="M40.62 130.82C43.1605 130.82 45.22 128.76 45.22 126.22C45.22 123.679 43.1605 121.62 40.62 121.62C38.0795 121.62 36.02 123.679 36.02 126.22C36.02 128.76 38.0795 130.82 40.62 130.82Z" fill="#2D2D2D"/>
<path d="M141.88 130.82C144.421 130.82 146.48 128.76 146.48 126.22C146.48 123.679 144.421 121.62 141.88 121.62C139.34 121.62 137.28 123.679 137.28 126.22C137.28 128.76 139.34 130.82 141.88 130.82Z" fill="#2D2D2D"/>
<path d="M60.87 130.82C63.4105 130.82 65.47 128.76 65.47 126.22C65.47 123.679 63.4105 121.62 60.87 121.62C58.3295 121.62 56.27 123.679 56.27 126.22C56.27 128.76 58.3295 130.82 60.87 130.82Z" fill="#2D2D2D"/>
<path d="M81.1301 141.51C82.0469 141.51 82.7901 140.767 82.7901 139.85C82.7901 138.933 82.0469 138.19 81.1301 138.19C80.2133 138.19 79.4701 138.933 79.4701 139.85C79.4701 140.767 80.2133 141.51 81.1301 141.51Z" fill="#2D2D2D"/>
<path d="M0.120083 141.51C1.03688 141.51 1.78008 140.767 1.78008 139.85C1.78008 138.933 1.03688 138.19 0.120083 138.19C-0.79671 138.19 -1.53992 138.933 -1.53992 139.85C-1.53992 140.767 -0.79671 141.51 0.120083 141.51Z" fill="#2D2D2D"/>
<path d="M101.38 141.51C102.297 141.51 103.04 140.767 103.04 139.85C103.04 138.933 102.297 138.19 101.38 138.19C100.463 138.19 99.7201 138.933 99.7201 139.85C99.7201 140.767 100.463 141.51 101.38 141.51Z" fill="#2D2D2D"/>
<path d="M20.3701 141.51C21.2869 141.51 22.0301 140.767 22.0301 139.85C22.0301 138.933 21.2869 138.19 20.3701 138.19C19.4533 138.19 18.7101 138.933 18.7101 139.85C18.7101 140.767 19.4533 141.51 20.3701 141.51Z" fill="#2D2D2D"/>
<path d="M121.63 141.51C122.547 141.51 123.29 140.767 123.29 139.85C123.29 138.933 122.547 138.19 121.63 138.19C120.713 138.19 119.97 138.933 119.97 139.85C119.97 140.767 120.713 141.51 121.63 141.51Z" fill="#2D2D2D"/>
<path d="M40.6201 141.51C41.5369 141.51 42.2801 140.767 42.2801 139.85C42.2801 138.933 41.5369 138.19 40.6201 138.19C39.7033 138.19 38.9601 138.933 38.9601 139.85C38.9601 140.767 39.7033 141.51 40.6201 141.51Z" fill="#2D2D2D"/>
<path d="M141.88 141.51C142.797 141.51 143.54 140.767 143.54 139.85C143.54 138.933 142.797 138.19 141.88 138.19C140.963 138.19 140.22 138.933 140.22 139.85C140.22 140.767 140.963 141.51 141.88 141.51Z" fill="#2D2D2D"/>
<path d="M60.8701 141.51C61.7869 141.51 62.5301 140.767 62.5301 139.85C62.5301 138.933 61.7869 138.19 60.8701 138.19C59.9533 138.19 59.2101 138.933 59.2101 139.85C59.2101 140.767 59.9533 141.51 60.8701 141.51Z" fill="#2D2D2D"/>
<path d="M81.1301 113.52C84.6868 113.52 87.5701 110.637 87.5701 107.08C87.5701 103.523 84.6868 100.64 81.1301 100.64C77.5733 100.64 74.6901 103.523 74.6901 107.08C74.6901 110.637 77.5733 113.52 81.1301 113.52Z" fill="#2D2D2D"/>
<path d="M0.120054 113.52C3.67677 113.52 6.56005 110.637 6.56005 107.08C6.56005 103.523 3.67677 100.64 0.120054 100.64C-3.43666 100.64 -6.31995 103.523 -6.31995 107.08C-6.31995 110.637 -3.43666 113.52 0.120054 113.52Z" fill="#2D2D2D"/>
<path d="M101.38 113.52C104.937 113.52 107.82 110.637 107.82 107.08C107.82 103.523 104.937 100.64 101.38 100.64C97.8233 100.64 94.9401 103.523 94.9401 107.08C94.9401 110.637 97.8233 113.52 101.38 113.52Z" fill="#2D2D2D"/>
<path d="M20.3701 113.52C23.9268 113.52 26.8101 110.637 26.8101 107.08C26.8101 103.523 23.9268 100.64 20.3701 100.64C16.8133 100.64 13.9301 103.523 13.9301 107.08C13.9301 110.637 16.8133 113.52 20.3701 113.52Z" fill="#2D2D2D"/>
<path d="M121.63 113.52C125.187 113.52 128.07 110.637 128.07 107.08C128.07 103.523 125.187 100.64 121.63 100.64C118.073 100.64 115.19 103.523 115.19 107.08C115.19 110.637 118.073 113.52 121.63 113.52Z" fill="#2D2D2D"/>
<path d="M40.6201 113.52C44.1768 113.52 47.0601 110.637 47.0601 107.08C47.0601 103.523 44.1768 100.64 40.6201 100.64C37.0633 100.64 34.1801 103.523 34.1801 107.08C34.1801 110.637 37.0633 113.52 40.6201 113.52Z" fill="#2D2D2D"/>
<path d="M141.88 113.52C145.437 113.52 148.32 110.637 148.32 107.08C148.32 103.523 145.437 100.64 141.88 100.64C138.323 100.64 135.44 103.523 135.44 107.08C135.44 110.637 138.323 113.52 141.88 113.52Z" fill="#2D2D2D"/>
<path d="M60.8701 113.52C64.4268 113.52 67.3101 110.637 67.3101 107.08C67.3101 103.523 64.4268 100.64 60.8701 100.64C57.3133 100.64 54.4301 103.523 54.4301 107.08C54.4301 110.637 57.3133 113.52 60.8701 113.52Z" fill="#2D2D2D"/>
<path d="M81.1301 96.2199C85.7085 96.2199 89.4201 92.5083 89.4201 87.9299C89.4201 83.3515 85.7085 79.6399 81.1301 79.6399C76.5516 79.6399 72.8401 83.3515 72.8401 87.9299C72.8401 92.5083 76.5516 96.2199 81.1301 96.2199Z" fill="#2D2D2D"/>
<path d="M0.120078 96.2199C4.69852 96.2199 8.41008 92.5083 8.41008 87.9299C8.41008 83.3515 4.69852 79.6399 0.120078 79.6399C-4.45836 79.6399 -8.16992 83.3515 -8.16992 87.9299C-8.16992 92.5083 -4.45836 96.2199 0.120078 96.2199Z" fill="#2D2D2D"/>
<path d="M101.38 96.2199C105.959 96.2199 109.67 92.5083 109.67 87.9299C109.67 83.3515 105.959 79.6399 101.38 79.6399C96.8016 79.6399 93.0901 83.3515 93.0901 87.9299C93.0901 92.5083 96.8016 96.2199 101.38 96.2199Z" fill="#2D2D2D"/>
<path d="M20.3701 96.2199C24.9485 96.2199 28.6601 92.5083 28.6601 87.9299C28.6601 83.3515 24.9485 79.6399 20.3701 79.6399C15.7916 79.6399 12.0801 83.3515 12.0801 87.9299C12.0801 92.5083 15.7916 96.2199 20.3701 96.2199Z" fill="#2D2D2D"/>
<path d="M121.63 96.2199C126.209 96.2199 129.92 92.5083 129.92 87.9299C129.92 83.3515 126.209 79.6399 121.63 79.6399C117.052 79.6399 113.34 83.3515 113.34 87.9299C113.34 92.5083 117.052 96.2199 121.63 96.2199Z" fill="#2D2D2D"/>
<path d="M40.6201 96.2199C45.1985 96.2199 48.9101 92.5083 48.9101 87.9299C48.9101 83.3515 45.1985 79.6399 40.6201 79.6399C36.0416 79.6399 32.3301 83.3515 32.3301 87.9299C32.3301 92.5083 36.0416 96.2199 40.6201 96.2199Z" fill="#2D2D2D"/>
<path d="M141.88 96.2199C146.459 96.2199 150.17 92.5083 150.17 87.9299C150.17 83.3515 146.459 79.6399 141.88 79.6399C137.302 79.6399 133.59 83.3515 133.59 87.9299C133.59 92.5083 137.302 96.2199 141.88 96.2199Z" fill="#2D2D2D"/>
<path d="M60.8701 96.2199C65.4485 96.2199 69.1601 92.5083 69.1601 87.9299C69.1601 83.3515 65.4485 79.6399 60.8701 79.6399C56.2916 79.6399 52.5801 83.3515 52.5801 87.9299C52.5801 92.5083 56.2916 96.2199 60.8701 96.2199Z" fill="#2D2D2D"/>
<path d="M81.13 78.9099C86.7246 78.9099 91.26 74.3745 91.26 68.7799C91.26 63.1853 86.7246 58.6499 81.13 58.6499C75.5354 58.6499 71 63.1853 71 68.7799C71 74.3745 75.5354 78.9099 81.13 78.9099Z" fill="#2D2D2D"/>
<path d="M0.120112 78.9099C5.71476 78.9099 10.2501 74.3745 10.2501 68.7799C10.2501 63.1853 5.71476 58.6499 0.120112 58.6499C-5.47453 58.6499 -10.0099 63.1853 -10.0099 68.7799C-10.0099 74.3745 -5.47453 78.9099 0.120112 78.9099Z" fill="#2D2D2D"/>
<path d="M101.38 78.9099C106.975 78.9099 111.51 74.3745 111.51 68.7799C111.51 63.1853 106.975 58.6499 101.38 58.6499C95.7854 58.6499 91.25 63.1853 91.25 68.7799C91.25 74.3745 95.7854 78.9099 101.38 78.9099Z" fill="#2D2D2D"/>
<path d="M20.3701 78.9099C25.9648 78.9099 30.5001 74.3745 30.5001 68.7799C30.5001 63.1853 25.9648 58.6499 20.3701 58.6499C14.7755 58.6499 10.2401 63.1853 10.2401 68.7799C10.2401 74.3745 14.7755 78.9099 20.3701 78.9099Z" fill="#2D2D2D"/>
<path d="M121.63 78.9099C127.225 78.9099 131.76 74.3745 131.76 68.7799C131.76 63.1853 127.225 58.6499 121.63 58.6499C116.035 58.6499 111.5 63.1853 111.5 68.7799C111.5 74.3745 116.035 78.9099 121.63 78.9099Z" fill="#2D2D2D"/>
<path d="M40.6201 78.9099C46.2148 78.9099 50.7501 74.3745 50.7501 68.7799C50.7501 63.1853 46.2148 58.6499 40.6201 58.6499C35.0255 58.6499 30.4901 63.1853 30.4901 68.7799C30.4901 74.3745 35.0255 78.9099 40.6201 78.9099Z" fill="#2D2D2D"/>
<path d="M141.88 78.9099C147.475 78.9099 152.01 74.3745 152.01 68.7799C152.01 63.1853 147.475 58.6499 141.88 58.6499C136.285 58.6499 131.75 63.1853 131.75 68.7799C131.75 74.3745 136.285 78.9099 141.88 78.9099Z" fill="#2D2D2D"/>
<path d="M60.8701 78.9099C66.4648 78.9099 71.0001 74.3745 71.0001 68.7799C71.0001 63.1853 66.4648 58.6499 60.8701 58.6499C55.2755 58.6499 50.7401 63.1853 50.7401 68.7799C50.7401 74.3745 55.2755 78.9099 60.8701 78.9099Z" fill="#2D2D2D"/>
<path d="M81.13 64.18C87.7409 64.18 93.1 58.8208 93.1 52.21C93.1 45.5991 87.7409 40.24 81.13 40.24C74.5192 40.24 69.16 45.5991 69.16 52.21C69.16 58.8208 74.5192 64.18 81.13 64.18Z" fill="#2D2D2D"/>
<path d="M0.120025 64.18C6.73087 64.18 12.09 58.8208 12.09 52.21C12.09 45.5991 6.73087 40.24 0.120025 40.24C-6.49082 40.24 -11.85 45.5991 -11.85 52.21C-11.85 58.8208 -6.49082 64.18 0.120025 64.18Z" fill="#2D2D2D"/>
<path d="M101.38 64.18C107.991 64.18 113.35 58.8208 113.35 52.21C113.35 45.5991 107.991 40.24 101.38 40.24C94.7692 40.24 89.41 45.5991 89.41 52.21C89.41 58.8208 94.7692 64.18 101.38 64.18Z" fill="#2D2D2D"/>
<path d="M20.37 64.18C26.9809 64.18 32.34 58.8208 32.34 52.21C32.34 45.5991 26.9809 40.24 20.37 40.24C13.7592 40.24 8.40002 45.5991 8.40002 52.21C8.40002 58.8208 13.7592 64.18 20.37 64.18Z" fill="#2D2D2D"/>
<path d="M121.63 64.18C128.241 64.18 133.6 58.8208 133.6 52.21C133.6 45.5991 128.241 40.24 121.63 40.24C115.019 40.24 109.66 45.5991 109.66 52.21C109.66 58.8208 115.019 64.18 121.63 64.18Z" fill="#2D2D2D"/>
<path d="M40.62 64.18C47.2309 64.18 52.59 58.8208 52.59 52.21C52.59 45.5991 47.2309 40.24 40.62 40.24C34.0092 40.24 28.65 45.5991 28.65 52.21C28.65 58.8208 34.0092 64.18 40.62 64.18Z" fill="#2D2D2D"/>
<path d="M141.88 64.18C148.491 64.18 153.85 58.8208 153.85 52.21C153.85 45.5991 148.491 40.24 141.88 40.24C135.269 40.24 129.91 45.5991 129.91 52.21C129.91 58.8208 135.269 64.18 141.88 64.18Z" fill="#2D2D2D"/>
<path d="M60.87 64.18C67.4809 64.18 72.84 58.8208 72.84 52.21C72.84 45.5991 67.4809 40.24 60.87 40.24C54.2592 40.24 48.9 45.5991 48.9 52.21C48.9 58.8208 54.2592 64.18 60.87 64.18Z" fill="#2D2D2D"/>
<path d="M81.1301 46.4999C88.7571 46.4999 94.9401 40.3169 94.9401 32.6899C94.9401 25.0628 88.7571 18.8799 81.1301 18.8799C73.503 18.8799 67.3201 25.0628 67.3201 32.6899C67.3201 40.3169 73.503 46.4999 81.1301 46.4999Z" fill="#2D2D2D"/>
<path d="M0.120058 46.4999C7.74711 46.4999 13.9301 40.3169 13.9301 32.6899C13.9301 25.0628 7.74711 18.8799 0.120058 18.8799C-7.50699 18.8799 -13.6899 25.0628 -13.6899 32.6899C-13.6899 40.3169 -7.50699 46.4999 0.120058 46.4999Z" fill="#2D2D2D"/>
<path d="M101.38 46.4999C109.007 46.4999 115.19 40.3169 115.19 32.6899C115.19 25.0628 109.007 18.8799 101.38 18.8799C93.753 18.8799 87.5701 25.0628 87.5701 32.6899C87.5701 40.3169 93.753 46.4999 101.38 46.4999Z" fill="#2D2D2D"/>
<path d="M20.3701 46.4999C27.9971 46.4999 34.1801 40.3169 34.1801 32.6899C34.1801 25.0628 27.9971 18.8799 20.3701 18.8799C12.743 18.8799 6.56006 25.0628 6.56006 32.6899C6.56006 40.3169 12.743 46.4999 20.3701 46.4999Z" fill="#2D2D2D"/>
<path d="M121.63 46.4999C129.257 46.4999 135.44 40.3169 135.44 32.6899C135.44 25.0628 129.257 18.8799 121.63 18.8799C114.003 18.8799 107.82 25.0628 107.82 32.6899C107.82 40.3169 114.003 46.4999 121.63 46.4999Z" fill="#2D2D2D"/>
<path d="M40.6201 46.4999C48.2471 46.4999 54.4301 40.3169 54.4301 32.6899C54.4301 25.0628 48.2471 18.8799 40.6201 18.8799C32.993 18.8799 26.8101 25.0628 26.8101 32.6899C26.8101 40.3169 32.993 46.4999 40.6201 46.4999Z" fill="#2D2D2D"/>
<path d="M141.88 46.4999C149.507 46.4999 155.69 40.3169 155.69 32.6899C155.69 25.0628 149.507 18.8799 141.88 18.8799C134.253 18.8799 128.07 25.0628 128.07 32.6899C128.07 40.3169 134.253 46.4999 141.88 46.4999Z" fill="#2D2D2D"/>
<path d="M60.8701 46.4999C68.4971 46.4999 74.6801 40.3169 74.6801 32.6899C74.6801 25.0628 68.4971 18.8799 60.8701 18.8799C53.243 18.8799 47.0601 25.0628 47.0601 32.6899C47.0601 40.3169 53.243 46.4999 60.8701 46.4999Z" fill="#2D2D2D"/>
<path d="M155.69 -18.3101H-13.6899V32.5099H155.69V-18.3101Z" fill="#2D2D2D"/>
</g>
<defs>
<clipPath id="clip0_63_1286">
<rect width="142" height="142" fill="white"/>
</clipPath>
</defs>
</svg>
