<svg width="512" height="512" viewBox="0 0 512 512" fill="none" xmlns="http://www.w3.org/2000/svg"><path d="M38 492H91.946C92.9819 492.037 94.0149 491.867 94.984 491.499C95.9532 491.131 96.839 490.573 97.5894 489.858C98.3398 489.143 98.9396 488.285 99.3536 487.334C99.7675 486.384 99.9873 485.361 100 484.324V464H412V484.324C412.013 485.361 412.232 486.384 412.646 487.334C413.06 488.285 413.66 489.143 414.411 489.858C415.161 490.573 416.047 491.131 417.016 491.499C417.985 491.867 419.018 492.037 420.054 492H474C475.033 492.036 476.063 491.865 477.029 491.496C477.994 491.127 478.876 490.568 479.622 489.852C480.368 489.137 480.963 488.279 481.371 487.329C481.78 486.38 481.993 485.358 482 484.324V427.03C482.001 424.905 481.16 422.866 479.66 421.361C478.16 419.856 476.125 419.007 474 419H455V93H474C476.125 92.9934 478.16 92.1443 479.66 90.6389C481.16 89.1336 482.001 87.0949 482 84.97V27.676C481.993 26.6423 481.78 25.6204 481.371 24.6708C480.963 23.7213 480.368 22.8632 479.622 22.1475C478.876 21.4319 477.994 20.8731 477.029 20.5042C476.063 20.1353 475.033 19.9639 474 20H420.054C419.018 19.9628 417.985 20.1332 417.016 20.5011C416.047 20.8689 415.161 21.4269 414.411 22.142C413.66 22.8572 413.06 23.7152 412.646 24.6656C412.232 25.6159 412.013 26.6395 412 27.676V48H100V27.676C99.9873 26.6395 99.7675 25.6159 99.3536 24.6656C98.9396 23.7152 98.3398 22.8572 97.5894 22.142C96.839 21.4269 95.9532 20.8689 94.984 20.5011C94.0149 20.1332 92.9819 19.9628 91.946 20H38C36.9669 19.9639 35.9371 20.1353 34.9714 20.5042C34.0058 20.8731 33.1239 21.4319 32.378 22.1475C31.6321 22.8632 31.0374 23.7213 30.6289 24.6708C30.2204 25.6204 30.0066 26.6423 30 27.676V84.97C29.9987 87.0949 30.8401 89.1336 32.3399 90.6389C33.8396 92.1443 35.8751 92.9934 38 93H57V419H38C35.8751 419.007 33.8396 419.856 32.3399 421.361C30.8401 422.866 29.9987 424.905 30 427.03V484.324C30.0066 485.358 30.2204 486.38 30.6289 487.329C31.0374 488.279 31.6321 489.137 32.378 489.852C33.1239 490.568 34.0058 491.127 34.9714 491.496C35.9371 491.865 36.9669 492.036 38 492ZM466 476H428V435H466V476ZM428 36H466V77H428V36ZM46 36H84V77H46V36ZM73 93H91.946C94.0764 92.9953 96.1186 92.1485 97.6273 90.6443C99.1361 89.1401 99.9889 87.1004 100 84.97V64H412V84.97C412.011 87.1004 412.864 89.1401 414.373 90.6443C415.881 92.1485 417.924 92.9953 420.054 93H439V419H420.054C417.924 419.005 415.881 419.852 414.373 421.356C412.864 422.86 412.011 424.9 412 427.03V448H100V427.03C99.9889 424.9 99.1361 422.86 97.6273 421.356C96.1186 419.852 94.0764 419.005 91.946 419H73V93ZM46 435H84V476H46V435Z" fill="black"/><path d="M181.052 360H172.14C170.018 360 167.983 360.843 166.483 362.343C164.983 363.843 164.14 365.878 164.14 368C164.14 370.122 164.983 372.156 166.483 373.657C167.983 375.157 170.018 376 172.14 376H185.479L199.3 426.044C199.762 427.74 200.765 429.24 202.156 430.315C203.548 431.39 205.252 431.981 207.01 432H308.148C309.932 431.981 311.659 431.372 313.06 430.269C314.462 429.166 315.459 427.629 315.896 425.9L328.7 376H339.86C341.982 376 344.017 375.157 345.517 373.657C347.017 372.156 347.86 370.122 347.86 368C347.86 365.878 347.017 363.843 345.517 362.343C344.017 360.843 341.982 360 339.86 360H332.807L356.982 266.012C357.478 264.1 357.236 262.071 356.304 260.329L263.071 84.2089C262.389 82.9244 261.37 81.85 260.123 81.1014C258.876 80.3528 257.449 79.9583 255.994 79.9602C254.54 79.9622 253.114 80.3605 251.869 81.1125C250.624 81.8645 249.607 82.9415 248.929 84.2279L155.7 260.377C154.745 262.146 154.516 264.217 155.06 266.153L181.052 360ZM301.944 416H213.1L202.081 376H312.181L301.944 416ZM256 228.083C258.793 228.083 261.524 228.911 263.847 230.463C266.17 232.015 267.98 234.221 269.049 236.802C270.118 239.383 270.398 242.223 269.853 244.962C269.308 247.702 267.962 250.219 265.987 252.194C264.012 254.169 261.495 255.515 258.755 256.06C256.016 256.605 253.176 256.325 250.595 255.256C248.014 254.187 245.808 252.376 244.256 250.054C242.704 247.731 241.876 245 241.876 242.207C241.88 238.462 243.37 234.872 246.017 232.224C248.665 229.577 252.255 228.087 256 228.083ZM248 120.192V213.17C240.972 215.106 234.884 219.525 230.865 225.608C226.847 231.691 225.171 239.024 226.148 246.249C227.124 253.473 230.688 260.098 236.177 264.895C241.667 269.693 248.71 272.336 256 272.336C263.29 272.336 270.333 269.693 275.823 264.895C281.312 260.098 284.876 253.473 285.852 246.249C286.829 239.024 285.153 231.691 281.135 225.608C277.116 219.525 271.028 215.106 264 213.17V120.192L340.715 265.029L316.287 360H197.653L171.325 264.953L248 120.192Z" fill="black"/></svg>
