<svg width="42" height="42" viewBox="0 0 42 42" fill="none" xmlns="http://www.w3.org/2000/svg">
<path d="M21 3.5C21 3.5 18.9087 6.99125 19.74 12.3025M29.75 5.845C29.75 5.845 26.1975 7.8225 24.255 12.845M36.155 12.25C36.155 12.25 32.0862 12.1888 27.9037 15.5663M38.5 21C38.5 21 35.0087 18.9087 29.6975 19.74M36.155 29.75C36.155 29.75 34.1775 26.1975 29.155 24.255M29.75 36.155C29.75 36.155 29.8112 32.0862 26.4337 27.9037M21 38.5C21 38.5 23.0913 35.0087 22.26 29.6975M12.25 36.155C12.25 36.155 15.8025 34.1775 17.745 29.155M5.845 29.75C5.845 29.75 9.91375 29.8112 14.0963 26.4337M3.5 21C3.5 21 6.99125 23.0913 12.3025 22.26M5.845 12.25C5.845 12.25 7.8225 15.8025 12.845 17.745M12.25 5.845C12.25 5.845 12.1888 9.91375 15.5663 14.0963" stroke="black" stroke-miterlimit="10" stroke-linecap="round" stroke-linejoin="round"/>
<path d="M20.9999 14.8137L19.1799 18.4975L15.1199 19.0837L18.0599 21.9537L17.3599 26.005L20.9999 24.0975L24.6399 26.005L23.9399 21.9537L26.8799 19.0837L22.8199 18.4975L20.9999 14.8137Z" fill="#FF7262"/>
</svg>
