<svg width="512" height="512" viewBox="0 0 512 512" fill="none" xmlns="http://www.w3.org/2000/svg">
<g clip-path="url(#clip0_250_444)">
<path fill-rule="evenodd" clip-rule="evenodd" d="M385.989 349.581L319.418 284.626C311.153 296.423 301.287 307.365 289.851 317.126L355.408 381.097L385.989 349.581Z" fill="#ECEFF1"/>
<path fill-rule="evenodd" clip-rule="evenodd" d="M385.989 349.581L319.418 284.626C315.337 290.451 310.864 296.069 306.005 301.439L370.308 365.741L385.989 349.581Z" fill="#E3E3E3"/>
<path fill-rule="evenodd" clip-rule="evenodd" d="M465.033 491.208L499.547 455.639C505.609 449.393 505.455 439.325 499.21 433.263L403.616 340.502C397.371 334.44 387.299 334.592 381.238 340.837L346.725 376.406C340.665 382.651 340.815 392.723 347.062 398.784L442.656 491.544C448.902 497.603 458.971 497.454 465.033 491.208Z" fill="#F6DCCD"/>
<path fill-rule="evenodd" clip-rule="evenodd" d="M480.172 475.606L499.546 455.639C505.608 449.392 505.454 439.324 499.209 433.262L403.615 340.501C397.37 334.439 387.298 334.592 381.237 340.837L363.589 359.024L480.172 475.606Z" fill="#F1CBBC"/>
<path d="M182.079 364.186C278.223 364.186 356.163 286.246 356.163 190.102C356.163 93.9581 278.223 16.0181 182.079 16.0181C85.9351 16.0181 7.995 93.9581 7.995 190.102C7.995 286.246 85.9351 364.186 182.079 364.186Z" fill="#ECEFF1"/>
<path fill-rule="evenodd" clip-rule="evenodd" d="M182.079 16.0181C278.223 16.0181 356.163 93.9581 356.163 190.102C356.163 286.246 278.223 364.186 182.079 364.186V16.0181Z" fill="#D1D1D6"/>
<path d="M270.466 278.488C319.281 229.672 319.279 150.526 270.463 101.712C221.647 52.8968 142.501 52.8982 93.6864 101.715C44.8717 150.531 44.8731 229.677 93.6895 278.491C142.506 327.306 221.651 327.305 270.466 278.488Z" fill="#FFD064"/>
<path d="M279.528 215.355C293.472 161.533 261.145 106.597 207.322 92.6521C153.499 78.7076 98.5634 111.035 84.6188 164.858C70.6743 218.68 103.002 273.616 156.824 287.561C210.647 301.505 265.583 269.178 279.528 215.355Z" fill="#FFE177"/>
<path fill-rule="evenodd" clip-rule="evenodd" d="M182.085 190.113L307.079 190.146C307.079 190.132 307.079 190.117 307.079 190.102C307.079 121.066 251.115 65.1021 182.079 65.1021V190.102L182.085 190.113Z" fill="#FD4755"/>
<path fill-rule="evenodd" clip-rule="evenodd" d="M182.085 190.113L282.75 190.139V190.102C282.75 134.502 237.678 89.4302 182.079 89.4302L182.078 190.102L182.085 190.113Z" fill="#FE646F"/>
<path fill-rule="evenodd" clip-rule="evenodd" d="M307.079 190.146L182.085 190.113L245.434 297.88C282.312 276.155 307.063 236.042 307.079 190.146Z" fill="#60B7FF"/>
<path fill-rule="evenodd" clip-rule="evenodd" d="M282.75 190.14L182.085 190.114L233.1 276.898C262.8 259.402 282.737 227.102 282.75 190.14Z" fill="#8AC9FE"/>
<path fill-rule="evenodd" clip-rule="evenodd" d="M493.788 450.058L459.301 485.63C456.282 488.729 451.328 488.8 448.214 485.8L352.631 393.044C351.169 391.591 350.319 389.642 350.272 387.538C350.225 385.434 351.027 383.462 352.489 381.971L386.976 346.404C388.438 344.913 390.373 344.083 392.496 344.055C392.496 344.041 392.59 344.041 392.59 344.041C394.666 344.041 396.6 344.819 398.063 346.235L493.646 439.001C496.76 442 496.807 446.972 493.788 450.058ZM325.646 301.961C319.89 309.311 313.615 316.209 306.822 322.592L348.527 363.061L367.964 343.029L325.646 301.961ZM16.017 190.093C16.017 98.5162 90.511 24.0082 182.083 24.0082C273.655 24.0082 348.149 98.5162 348.149 190.093C348.149 281.665 273.655 356.169 182.083 356.169C90.511 356.169 16.017 281.665 16.017 190.093ZM504.78 427.521L409.198 334.75C404.622 330.329 398.63 327.942 392.261 328.051C387.638 328.122 383.25 329.481 379.523 331.939L335.034 288.771C353.433 260.318 364.143 226.435 364.143 190.094C364.143 89.6952 282.478 8.01123 182.084 8.01123C81.689 8.01023 -0.0230103 89.6942 -0.0230103 190.093C-0.0230103 290.487 81.689 372.171 182.084 372.171C224.544 372.171 263.654 357.551 294.65 333.089L337.771 374.941C335.459 378.762 334.186 383.169 334.28 387.783C334.374 394.161 336.922 400.101 341.498 404.522L437.08 497.278C441.703 501.769 447.695 504.001 453.687 504.001C459.915 504.001 466.095 501.581 470.765 496.783L505.299 461.211C514.452 451.78 514.216 436.673 504.78 427.521ZM248.085 286.624C276.769 266.951 296.301 234.846 298.801 198.142L196.048 198.095L248.085 286.624ZM65.082 190.093C65.082 254.604 117.544 307.089 182.083 307.089C200.86 307.089 218.599 302.64 234.309 294.761L175.195 194.145C174.44 192.914 174.063 191.512 174.063 190.093V73.3702C113.298 77.4982 65.082 128.267 65.082 190.093ZM298.801 182.144C294.885 123.969 248.226 77.3192 190.056 73.3702V182.092L298.801 182.144ZM182.083 57.0892C255.397 57.0892 315.078 116.755 315.078 190.093C315.078 263.426 255.398 323.092 182.083 323.092C108.721 323.092 49.089 263.426 49.089 190.093C49.089 116.755 108.722 57.0892 182.083 57.0892Z" fill="black"/>
</g>
<defs>
<clipPath id="clip0_250_444">
<rect width="512" height="512" fill="white"/>
</clipPath>
</defs>
</svg>
