<svg width="687" height="465" viewBox="0 0 687 465" fill="none" xmlns="http://www.w3.org/2000/svg">
<mask id="path-1-outside-1_200_963" maskUnits="userSpaceOnUse" x="26" y="110" width="653" height="359" fill="black">
<rect fill="white" x="26" y="110" width="653" height="359"/>
<path d="M243.495 114.415H316.561V338.843C316.561 364.042 310.542 386.091 298.505 404.99C286.581 423.889 269.875 438.626 248.389 449.2C226.902 459.663 201.872 464.894 173.298 464.894C144.612 464.894 119.526 459.663 98.0394 449.2C76.5528 438.626 59.8473 423.889 47.9229 404.99C35.9984 386.091 30.0362 364.042 30.0362 338.843V114.415H103.102V332.599C103.102 345.761 105.97 357.461 111.707 367.698C117.557 377.935 125.769 385.978 136.344 391.828C146.918 397.678 159.237 400.603 173.298 400.603C187.473 400.603 199.791 397.678 210.253 391.828C220.828 385.978 228.983 377.935 234.721 367.698C240.57 357.461 243.495 345.761 243.495 332.599V114.415ZM445.185 114.415L514.875 232.198H517.575L587.603 114.415H670.118L564.654 287.208L672.481 460H588.447L517.575 342.049H514.875L444.004 460H360.307L468.471 287.208L362.332 114.415H445.185Z"/>
</mask>
<path d="M243.495 114.415H316.561V338.843C316.561 364.042 310.542 386.091 298.505 404.99C286.581 423.889 269.875 438.626 248.389 449.2C226.902 459.663 201.872 464.894 173.298 464.894C144.612 464.894 119.526 459.663 98.0394 449.2C76.5528 438.626 59.8473 423.889 47.9229 404.99C35.9984 386.091 30.0362 364.042 30.0362 338.843V114.415H103.102V332.599C103.102 345.761 105.97 357.461 111.707 367.698C117.557 377.935 125.769 385.978 136.344 391.828C146.918 397.678 159.237 400.603 173.298 400.603C187.473 400.603 199.791 397.678 210.253 391.828C220.828 385.978 228.983 377.935 234.721 367.698C240.57 357.461 243.495 345.761 243.495 332.599V114.415ZM445.185 114.415L514.875 232.198H517.575L587.603 114.415H670.118L564.654 287.208L672.481 460H588.447L517.575 342.049H514.875L444.004 460H360.307L468.471 287.208L362.332 114.415H445.185Z" fill="white" fill-opacity="0.5"/>
<path d="M243.495 114.415V110.873H239.953V114.415H243.495ZM316.561 114.415H320.103V110.873H316.561V114.415ZM298.505 404.99L295.517 403.087L295.513 403.093L295.509 403.1L298.505 404.99ZM248.389 449.2L249.94 452.386L249.946 452.382L249.953 452.379L248.389 449.2ZM98.0394 449.2L96.475 452.379L96.4818 452.382L96.4885 452.386L98.0394 449.2ZM47.9229 404.99L44.9267 406.88L47.9229 404.99ZM30.0362 114.415V110.873H26.4935V114.415H30.0362ZM103.102 114.415H106.644V110.873H103.102V114.415ZM111.707 367.698L108.617 369.43L108.624 369.443L108.632 369.456L111.707 367.698ZM136.344 391.828L134.629 394.928L136.344 391.828ZM210.253 391.828L208.538 388.728L208.531 388.732L208.524 388.736L210.253 391.828ZM234.721 367.698L231.645 365.94L231.638 365.953L231.63 365.966L234.721 367.698ZM243.495 117.958H316.561V110.873H243.495V117.958ZM313.018 114.415V338.843H320.103V114.415H313.018ZM313.018 338.843C313.018 363.454 307.148 384.825 295.517 403.087L301.493 406.893C313.936 387.356 320.103 364.629 320.103 338.843H313.018ZM295.509 403.1C283.959 421.406 267.768 435.715 246.825 446.022L249.953 452.379C271.983 441.537 289.203 426.373 301.501 406.88L295.509 403.1ZM246.838 446.015C225.92 456.201 201.439 461.351 173.298 461.351V468.436C202.306 468.436 227.885 463.125 249.94 452.386L246.838 446.015ZM173.298 461.351C145.043 461.351 120.506 456.2 99.5902 446.015L96.4885 452.386C118.545 463.125 144.181 468.436 173.298 468.436V461.351ZM99.6037 446.022C78.6604 435.715 62.4691 421.406 50.919 403.1L44.9267 406.88C57.2255 426.373 74.4452 441.537 96.475 452.379L99.6037 446.022ZM50.919 403.1C39.3957 384.836 33.5788 363.461 33.5788 338.843H26.4935C26.4935 364.623 32.6011 387.345 44.9267 406.88L50.919 403.1ZM33.5788 338.843V114.415H26.4935V338.843H33.5788ZM30.0362 117.958H103.102V110.873H30.0362V117.958ZM99.559 114.415V332.599H106.644V114.415H99.559ZM99.559 332.599C99.559 346.293 102.549 358.602 108.617 369.43L114.798 365.966C109.392 356.32 106.644 345.23 106.644 332.599H99.559ZM108.632 369.456C114.812 380.271 123.501 388.772 134.629 394.928L138.059 388.728C128.037 383.184 120.303 375.599 114.783 365.94L108.632 369.456ZM134.629 394.928C145.809 401.112 158.736 404.145 173.298 404.145V397.06C159.738 397.06 148.028 394.243 138.059 388.728L134.629 394.928ZM173.298 404.145C187.967 404.145 200.903 401.115 211.982 394.92L208.524 388.736C198.679 394.241 186.978 397.06 173.298 397.06V404.145ZM211.968 394.928C223.101 388.769 231.742 380.26 237.811 369.43L231.63 365.966C226.225 375.61 218.554 383.188 208.538 388.728L211.968 394.928ZM237.797 369.456C243.987 358.623 247.038 346.305 247.038 332.599H239.953C239.953 345.218 237.154 356.299 231.645 365.94L237.797 369.456ZM247.038 332.599V114.415H239.953V332.599H247.038ZM445.185 114.415L448.234 112.611L447.205 110.873H445.185V114.415ZM514.875 232.198L511.826 234.002L512.855 235.74H514.875V232.198ZM517.575 232.198V235.74H519.59L520.62 234.008L517.575 232.198ZM587.603 114.415V110.873H585.588L584.558 112.605L587.603 114.415ZM670.118 114.415L673.142 116.261L676.431 110.873H670.118V114.415ZM564.654 287.208L561.63 285.362L560.491 287.228L561.649 289.083L564.654 287.208ZM672.481 460V463.543H678.867L675.486 458.125L672.481 460ZM588.447 460L585.41 461.825L586.443 463.543H588.447V460ZM517.575 342.049L520.612 340.224L519.58 338.506H517.575V342.049ZM514.875 342.049V338.506H512.871L511.839 340.224L514.875 342.049ZM444.004 460V463.543H446.008L447.04 461.825L444.004 460ZM360.307 460L357.304 458.12L353.91 463.543H360.307V460ZM468.471 287.208L471.474 289.087L472.64 287.225L471.49 285.354L468.471 287.208ZM362.332 114.415V110.873H355.998L359.314 116.27L362.332 114.415ZM442.136 116.22L511.826 234.002L517.924 230.394L448.234 112.611L442.136 116.22ZM514.875 235.74H517.575V228.655H514.875V235.74ZM520.62 234.008L590.648 116.226L584.558 112.605L514.53 230.387L520.62 234.008ZM587.603 117.958H670.118V110.873H587.603V117.958ZM667.094 112.57L561.63 285.362L567.678 289.053L673.142 116.261L667.094 112.57ZM561.649 289.083L669.475 461.875L675.486 458.125L567.66 285.332L561.649 289.083ZM672.481 456.457H588.447V463.543H672.481V456.457ZM591.484 458.175L520.612 340.224L514.539 343.874L585.41 461.825L591.484 458.175ZM517.575 338.506H514.875V345.592H517.575V338.506ZM511.839 340.224L440.967 458.175L447.04 461.825L517.912 343.874L511.839 340.224ZM444.004 456.457H360.307V463.543H444.004V456.457ZM363.31 461.88L471.474 289.087L465.468 285.328L357.304 458.12L363.31 461.88ZM471.49 285.354L365.351 112.561L359.314 116.27L465.453 289.062L471.49 285.354ZM362.332 117.958H445.185V110.873H362.332V117.958Z" fill="#FF7262" mask="url(#path-1-outside-1_200_963)"/>
<mask id="path-3-outside-2_200_963" maskUnits="userSpaceOnUse" x="317.086" y="110" width="326" height="354" fill="black">
<rect fill="white" x="317.086" y="110" width="326" height="354"/>
<path d="M408.632 114.415L478.322 232.198H481.022L551.05 114.415H633.565L528.101 287.208L635.928 460H551.894L481.022 342.049H478.322L407.45 460H323.754L431.918 287.208L325.779 114.415H408.632Z"/>
</mask>
<path d="M408.632 114.415L478.322 232.198H481.022L551.05 114.415H633.565L528.101 287.208L635.928 460H551.894L481.022 342.049H478.322L407.45 460H323.754L431.918 287.208L325.779 114.415H408.632Z" fill="#FF7262"/>
<path d="M408.632 114.415L411.68 112.611L410.652 110.873H408.632V114.415ZM478.322 232.198L475.273 234.002L476.302 235.74H478.322V232.198ZM481.022 232.198V235.74H483.037L484.067 234.008L481.022 232.198ZM551.05 114.415V110.873H549.035L548.005 112.605L551.05 114.415ZM633.565 114.415L636.589 116.261L639.878 110.873H633.565V114.415ZM528.101 287.208L525.077 285.362L523.938 287.228L525.096 289.083L528.101 287.208ZM635.928 460V463.543H642.314L638.933 458.125L635.928 460ZM551.894 460L548.857 461.825L549.89 463.543H551.894V460ZM481.022 342.049L484.059 340.224L483.026 338.506H481.022V342.049ZM478.322 342.049V338.506H476.318L475.286 340.224L478.322 342.049ZM407.45 460V463.543H409.455L410.487 461.825L407.45 460ZM323.754 460L320.751 458.12L317.357 463.543H323.754V460ZM431.918 287.208L434.921 289.087L436.086 287.225L434.937 285.354L431.918 287.208ZM325.779 114.415V110.873H319.445L322.76 116.27L325.779 114.415ZM405.583 116.22L475.273 234.002L481.371 230.394L411.68 112.611L405.583 116.22ZM478.322 235.74H481.022V228.655H478.322V235.74ZM484.067 234.008L554.095 116.226L548.005 112.605L477.977 230.387L484.067 234.008ZM551.05 117.958H633.565V110.873H551.05V117.958ZM630.541 112.57L525.077 285.362L531.125 289.053L636.589 116.261L630.541 112.57ZM525.096 289.083L632.922 461.875L638.933 458.125L531.107 285.332L525.096 289.083ZM635.928 456.457H551.894V463.543H635.928V456.457ZM554.93 458.175L484.059 340.224L477.985 343.874L548.857 461.825L554.93 458.175ZM481.022 338.506H478.322V345.592H481.022V338.506ZM475.286 340.224L404.414 458.175L410.487 461.825L481.359 343.874L475.286 340.224ZM407.45 456.457H323.754V463.543H407.45V456.457ZM326.757 461.88L434.921 289.087L428.915 285.328L320.751 458.12L326.757 461.88ZM434.937 285.354L328.798 112.561L322.76 116.27L428.899 289.062L434.937 285.354ZM325.779 117.958H408.632V110.873H325.779V117.958Z" fill="#171717" mask="url(#path-3-outside-2_200_963)"/>
</svg>
