<svg width="512" height="512" viewBox="0 0 512 512" fill="none" xmlns="http://www.w3.org/2000/svg">
<path d="M233.144 52.928C240.694 51.631 248.34 50.978 256 50.976C273.621 50.9285 291.076 54.3765 307.355 61.1203C323.635 67.8641 338.415 77.7698 350.84 90.264C351.583 91.0073 352.465 91.597 353.435 91.9995C354.406 92.4019 355.446 92.6093 356.497 92.6096C357.548 92.61 358.589 92.4034 359.559 92.0016C360.53 91.5999 361.413 91.0108 362.156 90.268C362.899 89.5253 363.489 88.6434 363.891 87.6727C364.294 86.7021 364.501 85.6616 364.502 84.6108C364.502 83.5601 364.295 82.5195 363.894 81.5485C363.492 80.5776 362.903 79.6953 362.16 78.952C348.252 64.9663 331.708 53.8783 313.485 46.3298C295.263 38.7813 275.724 34.9222 256 34.976C247.42 34.9763 238.855 35.7096 230.4 37.168C229.34 37.3188 228.321 37.6807 227.404 38.2324C226.487 38.7841 225.689 39.5143 225.059 40.3797C224.429 41.2452 223.979 42.2283 223.736 43.2708C223.493 44.3133 223.461 45.394 223.643 46.4489C223.825 47.5038 224.217 48.5114 224.796 49.4121C225.374 50.3127 226.128 51.0881 227.012 51.6923C227.895 52.2965 228.891 52.7172 229.941 52.9294C230.99 53.1417 232.071 53.1412 233.12 52.928H233.144Z" fill="black"/>
<path d="M482.856 288C477.379 267.656 467.684 248.692 454.402 232.338C441.12 215.984 424.548 202.606 405.76 193.072C405.896 190.424 406.128 187.784 406.136 185.072C406.167 155.86 397.637 127.28 381.6 102.864C380.433 101.09 378.609 99.8527 376.53 99.4237C374.45 98.9946 372.286 99.4091 370.512 100.576C368.738 101.743 367.501 103.567 367.072 105.646C366.643 107.726 367.057 109.89 368.224 111.664C382.542 133.487 390.149 159.028 390.104 185.128C390.104 185.488 390.056 185.84 390.048 186.208C373.372 179.949 355.708 176.73 337.896 176.704C308.823 176.717 280.377 185.156 256 201C251.453 198.026 246.747 195.302 241.904 192.84C240.008 191.885 237.811 191.723 235.795 192.388C233.78 193.053 232.111 194.492 231.156 196.388C230.201 198.284 230.039 200.481 230.704 202.497C231.369 204.513 232.808 206.181 234.704 207.136C237.232 208.405 239.709 209.76 242.136 211.2C214.519 234.219 195.976 266.299 189.816 301.72C179.333 295.795 169.692 288.489 161.152 280C140.323 259.225 126.968 232.133 123.176 202.96C150.374 191.817 180.464 189.851 208.88 197.36C210.93 197.91 213.114 197.622 214.951 196.562C216.789 195.501 218.13 193.754 218.68 191.704C219.23 189.654 218.942 187.471 217.882 185.633C216.821 183.795 215.074 182.454 213.024 181.904C182.924 173.969 151.108 175.529 121.928 186.368C121.928 185.968 121.864 185.568 121.864 185.184C121.865 160.01 128.941 135.343 142.284 113.995C155.627 92.648 174.7 75.4797 197.328 64.4481C199.238 63.5198 200.7 61.871 201.394 59.8644C202.088 57.8577 201.956 55.6576 201.028 53.7481C200.568 52.8025 199.927 51.9568 199.141 51.2592C198.354 50.5615 197.438 50.0256 196.444 49.682C194.438 48.9881 192.238 49.1198 190.328 50.0481C165.009 62.3887 143.666 81.5943 128.733 105.476C113.799 129.357 105.875 156.954 105.864 185.12C105.864 187.8 106.12 190.44 106.256 193.12C96.1834 198.164 86.7173 204.337 78.04 211.52C76.4084 212.877 75.3826 214.826 75.1883 216.939C74.994 219.053 75.6471 221.156 77.004 222.788C78.3608 224.42 80.3103 225.445 82.4234 225.64C84.5366 225.834 86.6404 225.181 88.272 223.824C94.4509 218.695 101.087 214.143 108.096 210.224C113.195 240.941 127.791 269.287 149.832 291.28C160.997 302.416 173.841 311.73 187.896 318.88C187.589 324.305 187.589 329.743 187.896 335.168C188.042 337.275 189.005 339.242 190.58 340.65C192.155 342.058 194.218 342.795 196.328 342.704C198.445 342.584 200.428 341.629 201.841 340.048C203.254 338.467 203.982 336.389 203.864 334.272C203.731 331.765 203.664 329.267 203.664 326.776C203.664 326.44 203.72 326.104 203.72 325.768C237.429 338.43 274.587 338.43 308.296 325.768C308.296 326.112 308.336 326.456 308.336 326.8C308.324 347.342 303.6 367.607 294.527 386.036C285.453 404.466 272.273 420.568 256 433.104C232.688 415.139 215.918 390.018 208.264 361.6C208.015 360.561 207.56 359.582 206.927 358.721C206.293 357.86 205.494 357.135 204.575 356.589C203.657 356.042 202.638 355.685 201.579 355.539C200.521 355.392 199.444 355.46 198.411 355.737C197.379 356.014 196.413 356.495 195.569 357.151C194.726 357.808 194.023 358.627 193.501 359.559C192.98 360.492 192.65 361.52 192.533 362.582C192.415 363.645 192.511 364.72 192.816 365.744C200.91 395.78 218.126 422.563 242.088 442.4C215.858 457.805 185.17 463.836 155.061 459.503C124.951 455.169 97.2097 440.73 76.3882 418.553C55.5668 396.376 42.9027 367.78 40.4743 337.457C38.0459 307.135 45.9974 276.888 63.024 251.68C63.6329 250.811 64.0628 249.829 64.2886 248.792C64.5144 247.755 64.5315 246.683 64.3391 245.64C64.1467 244.596 63.7485 243.601 63.1677 242.712C62.5869 241.824 61.8352 241.06 60.9563 240.465C60.0774 239.87 59.0889 239.456 58.0483 239.247C57.0078 239.038 55.9361 239.038 54.8955 239.247C53.855 239.456 52.8665 239.87 51.9875 240.465C51.1086 241.06 50.3568 241.824 49.776 242.712C30.3483 271.41 21.4481 305.946 24.5857 340.459C27.7233 374.973 42.7055 407.338 66.9898 432.062C91.2741 456.786 123.365 472.347 157.816 476.103C192.268 479.86 226.958 471.581 256 452.672C265.391 458.811 275.44 463.877 285.96 467.776C286.957 468.212 288.033 468.439 289.122 468.444C290.21 468.449 291.288 468.233 292.29 467.807C293.291 467.381 294.196 466.756 294.947 465.969C295.699 465.181 296.282 464.249 296.661 463.229C297.039 462.208 297.206 461.121 297.15 460.035C297.095 458.948 296.818 457.883 296.336 456.907C295.855 455.931 295.18 455.063 294.352 454.357C293.523 453.651 292.56 453.121 291.52 452.8C283.972 449.993 276.692 446.512 269.768 442.4C286.829 428.34 300.568 410.68 310.002 390.687C319.436 370.693 324.331 348.86 324.336 326.752C324.336 324.136 324.184 321.504 324.048 318.872C338.124 311.719 350.988 302.397 362.168 291.248C376.703 276.776 388.09 259.457 395.616 240.376C399.428 230.643 402.209 220.537 403.912 210.224C430.379 225.234 450.955 248.797 462.264 277.044C473.572 305.292 474.941 336.544 466.144 365.672C457.348 394.799 438.909 420.07 413.856 437.336C388.802 454.602 358.623 462.837 328.272 460.688C326.156 460.537 324.066 461.234 322.463 462.624C320.86 464.014 319.875 465.984 319.724 468.1C319.573 470.216 320.27 472.306 321.66 473.909C323.05 475.512 325.02 476.497 327.136 476.648C330.651 476.899 334.184 477.024 337.736 477.024C360.784 477.063 383.531 471.791 404.213 461.617C424.894 451.443 442.953 436.641 456.989 418.36C471.024 400.078 480.659 378.808 485.145 356.2C489.631 333.593 488.848 310.256 482.856 288ZM256 319.256C238.5 319.281 221.166 315.875 204.976 309.232C209.641 274.751 227.403 243.389 254.576 221.656C255.056 221.28 255.568 220.976 256.048 220.608C283.581 241.844 301.813 272.925 306.912 307.32C307.008 307.936 307.04 308.568 307.12 309.192C290.903 315.86 273.534 319.279 256 319.256ZM380.744 234.52C374.02 251.579 363.842 267.063 350.848 280C342.301 288.506 332.649 295.825 322.152 301.76C316.117 266.363 297.612 234.296 269.984 211.36C287.764 200.802 307.762 194.537 328.387 193.062C349.013 191.587 369.699 194.943 388.8 202.864C387.422 213.706 384.716 224.338 380.744 234.52Z" fill="black"/>
</svg>
